<svg width="2000" height="980" viewBox="0 0 2000 980" fill="none" xmlns="http://www.w3.org/2000/svg">
<path d="M55 28C294.25 28 533.5 28 780 28C780 84.43 780 140.86 780 199C776.37 201.97 772.74 204.94 769 208C766.704 210.142 764.466 212.272 762.266 214.504C761.698 215.071 761.131 215.639 760.547 216.224C759.369 217.405 758.193 218.589 757.019 219.775C755.244 221.569 753.46 223.354 751.676 225.139C746.456 230.375 741.331 235.626 736.53 241.254C733.841 244.322 730.914 247.147 728 250C723.76 254.196 719.618 258.401 715.762 262.957C713.909 265.105 711.992 267.186 710.062 269.265C705.296 274.4 700.756 279.648 696.363 285.109C694.207 287.747 691.998 290.323 689.76 292.89C683.037 300.614 676.804 308.65 670.646 316.827C669.014 318.982 667.366 321.124 665.711 323.262C640.869 355.381 619.115 389.761 599 425C598.393 426.061 597.787 427.121 597.162 428.214C578.069 461.771 561.122 496.484 546 532C545.697 532.709 545.395 533.418 545.083 534.149C535.702 556.174 527.022 578.445 519 601C518.75 601.702 518.5 602.404 518.242 603.128C508.805 629.707 501.169 656.769 493.816 683.988C493.041 686.847 492.258 689.704 491.471 692.56C478.803 738.654 470.692 786.028 464.478 833.403C463.871 837.974 463.215 842.538 462.554 847.102C462.033 850.701 461.522 854.302 461.012 857.902C460.407 862.168 459.787 866.431 459.145 870.691C457.185 884.13 456.312 897.556 455.646 911.11C455.591 912.211 455.591 912.211 455.535 913.334C455.436 915.342 455.343 917.35 455.25 919.357C455.005 922.921 454.505 926.464 454 930C372.16 930 290.32 930 206 930C206 921 206 921 206.487 917.833C206.595 917.116 206.702 916.4 206.812 915.662C206.931 914.91 207.05 914.158 207.172 913.383C207.296 912.568 207.419 911.753 207.547 910.914C207.942 908.316 208.346 905.721 208.75 903.125C209.006 901.455 209.261 899.784 209.516 898.113C210.049 894.622 210.588 891.132 211.13 887.642C211.731 883.765 212.315 879.887 212.889 876.007C215.276 859.978 218.096 844.046 221.099 828.123C221.617 825.375 222.131 822.626 222.64 819.877C225.637 803.699 228.898 787.622 232.687 771.607C234.044 765.866 235.245 760.106 236.405 754.322C252.111 676.4 278.037 599.95 346.559 458.515C348.441 455.23 350.245 451.907 352.047 448.578C362.044 430.114 373.062 412.226 384.376 394.545C386.173 391.729 387.956 388.904 389.738 386.078C398.162 372.766 406.91 359.739 415.987 346.865C418.728 342.965 421.439 339.044 424.152 335.125C440.562 311.439 457.258 287.647 476.25 265.938C483.03 258.063 490.337 249.326 495 240C349.8 240 204.6 240 55 240C55 170.04 55 100.08 55 28Z" fill="white"/>
<path d="M1541 169C1605.02 169 1669.04 169 1735 169C1736.65 172.96 1738.3 176.92 1740 181C1741.79 184.764 1743.6 188.511 1745.44 192.25C1751.68 205.121 1757.42 218.191 1763.1 231.316C1766.59 239.378 1770.13 247.419 1773.67 255.461C1780.33 270.602 1786.95 285.757 1793.55 300.922C1798.58 312.462 1803.63 323.992 1808.69 335.514C1817.95 356.581 1827.14 377.68 1836.3 398.79C1838.65 404.206 1841.01 409.621 1843.36 415.036C1861.29 456.282 1861.29 456.282 1869.81 476.25C1875.84 490.362 1881.99 504.419 1888.17 518.464C1888.93 520.2 1889.7 521.936 1890.46 523.672C1890.84 524.532 1891.22 525.392 1891.61 526.278C1895.24 534.541 1898.85 542.815 1902.45 551.092C1908.4 564.751 1914.36 578.404 1920.34 592.046C1921.1 593.765 1921.85 595.483 1922.6 597.202C1928.97 611.73 1935.38 626.242 1942.07 640.625C1942.49 641.535 1942.91 642.445 1943.35 643.383C1944.19 645.192 1945.03 647 1945.88 648.805C1946.3 649.694 1946.71 650.584 1947.13 651.5C1947.49 652.273 1947.85 653.047 1948.22 653.844C1949 656 1949 656 1949 660C1887.95 660 1826.9 660 1764 660C1757.44 642.506 1751.02 624.959 1744.72 607.37C1744.25 606.06 1743.77 604.751 1743.3 603.442C1742.63 601.596 1741.97 599.747 1741.31 597.898C1740.94 596.853 1740.56 595.809 1740.18 594.732C1738.55 589.557 1737.32 584.264 1736 579C1669.67 579 1603.34 579 1535 579C1534.34 581.97 1533.68 584.94 1533 588C1532.23 590.52 1531.43 593.029 1530.59 595.523C1530.24 596.562 1530.24 596.562 1529.88 597.621C1529.12 599.874 1528.36 602.125 1527.59 604.375C1527.06 605.951 1526.52 607.528 1525.99 609.105C1524.88 612.39 1523.77 615.675 1522.65 618.958C1521.22 623.175 1519.79 627.393 1518.37 631.612C1517.27 634.859 1516.17 638.105 1515.07 641.351C1514.54 642.907 1514.02 644.464 1513.49 646.02C1512.76 648.185 1512.02 650.349 1511.28 652.512C1510.87 653.744 1510.45 654.976 1510.02 656.245C1509 659 1509 659 1508 660C1505.66 660.098 1503.35 660.13 1501.01 660.12C1500.27 660.121 1499.53 660.122 1498.77 660.123C1496.27 660.124 1493.77 660.119 1491.27 660.114C1489.49 660.113 1487.7 660.113 1485.92 660.114C1481.06 660.114 1476.21 660.108 1471.35 660.101C1466.28 660.095 1461.21 660.095 1456.14 660.093C1446.53 660.09 1436.92 660.082 1427.31 660.072C1416.38 660.061 1405.44 660.055 1394.51 660.05C1372 660.04 1349.5 660.022 1327 660C1327.73 655.962 1328.91 653.051 1330.88 649.438C1334.44 642.618 1337.19 635.554 1339.94 628.375C1344.19 617.331 1348.78 606.484 1353.62 595.688C1354.13 594.56 1354.13 594.56 1354.65 593.41C1356.04 590.31 1357.43 587.21 1358.82 584.111C1362.74 575.374 1366.56 566.595 1370.38 557.812C1371.8 554.538 1373.22 551.263 1374.65 547.988C1375.18 546.761 1375.18 546.761 1375.73 545.509C1379.8 536.163 1383.9 526.831 1388 517.5C1393.86 504.177 1399.69 490.844 1405.5 477.5C1411.29 464.199 1417.1 450.907 1422.94 437.625C1423.31 436.776 1423.68 435.928 1424.07 435.054C1427.09 428.174 1430.11 421.296 1433.14 414.417C1435.78 408.403 1438.42 402.389 1441.06 396.375C1441.44 395.526 1441.81 394.678 1442.19 393.803C1448 380.573 1453.78 367.331 1459.55 354.082C1465.39 340.682 1471.25 327.297 1477.14 313.917C1482.61 301.454 1488.07 288.981 1493.5 276.5C1504.51 251.218 1515.56 225.954 1526.75 200.75C1527.2 199.729 1527.66 198.707 1528.12 197.655C1530.88 191.448 1533.71 185.273 1536.58 179.114C1538.11 175.767 1539.55 172.382 1541 169ZM1636 299C1632.55 307.048 1629.44 315.156 1626.59 323.434C1625.98 325.189 1625.98 325.189 1625.35 326.98C1624.48 329.492 1623.61 332.003 1622.73 334.516C1620.4 341.257 1618.05 347.994 1615.7 354.73C1615.46 355.416 1615.22 356.101 1614.97 356.807C1610.14 370.648 1605.21 384.455 1600.25 398.25C1598.71 402.542 1597.16 406.833 1595.62 411.125C1595.24 412.174 1594.87 413.224 1594.48 414.305C1590.45 425.531 1586.45 436.769 1582.46 448.012C1581.7 450.158 1580.94 452.303 1580.18 454.448C1579.13 457.387 1578.09 460.326 1577.05 463.266C1576.74 464.142 1576.43 465.018 1576.11 465.921C1574.65 469.384 1574.65 469.384 1574 473C1615.25 473 1656.5 473 1699 473C1696.56 464.827 1696.56 464.827 1693.83 456.783C1693.43 455.662 1693.03 454.541 1692.61 453.386C1692.18 452.196 1691.75 451.007 1691.31 449.781C1690.85 448.498 1690.38 447.215 1689.92 445.932C1688.69 442.5 1687.45 439.069 1686.21 435.638C1684.91 432.029 1683.61 428.418 1682.31 424.808C1680.2 418.961 1678.09 413.115 1675.98 407.269C1673.35 399.985 1670.73 392.7 1668.11 385.414C1667.74 384.374 1667.36 383.333 1666.97 382.261C1666.24 380.217 1665.5 378.172 1664.77 376.128C1662.98 371.153 1661.19 366.178 1659.39 361.203C1654.96 348.897 1650.53 336.59 1646.1 324.283C1644.17 318.915 1642.24 313.547 1640.3 308.18C1639.66 306.385 1639.01 304.591 1638.37 302.796C1638.1 302.059 1637.84 301.322 1637.56 300.562C1637.38 300.046 1637.19 299.531 1637 299C1636.67 299 1636.34 299 1636 299Z" fill="white"/>
<path d="M863 169C927.02 169 991.04 169 1057 169C1058.65 172.96 1060.3 176.92 1062 181C1063.79 184.764 1065.6 188.511 1067.44 192.25C1073.68 205.121 1079.42 218.191 1085.1 231.316C1088.59 239.378 1092.13 247.419 1095.67 255.461C1102.33 270.602 1108.95 285.757 1115.55 300.922C1120.58 312.462 1125.63 323.992 1130.69 335.514C1139.95 356.581 1149.14 377.68 1158.3 398.79C1160.65 404.206 1163.01 409.621 1165.36 415.036C1183.29 456.282 1183.29 456.282 1191.81 476.25C1197.84 490.362 1203.99 504.419 1210.17 518.464C1210.93 520.2 1211.7 521.936 1212.46 523.672C1212.84 524.532 1213.22 525.392 1213.61 526.278C1217.24 534.541 1220.85 542.815 1224.45 551.092C1230.4 564.751 1236.36 578.404 1242.34 592.046C1243.1 593.765 1243.85 595.483 1244.6 597.202C1250.97 611.73 1257.38 626.242 1264.07 640.625C1264.49 641.535 1264.91 642.445 1265.35 643.383C1266.19 645.192 1267.03 647 1267.88 648.805C1268.3 649.694 1268.71 650.584 1269.13 651.5C1269.49 652.273 1269.85 653.047 1270.22 653.844C1271 656 1271 656 1271 660C1209.95 660 1148.9 660 1086 660C1079.44 642.506 1073.02 624.959 1066.72 607.37C1066.25 606.06 1065.77 604.751 1065.3 603.442C1064.63 601.596 1063.97 599.747 1063.31 597.898C1062.94 596.853 1062.56 595.809 1062.18 594.732C1060.55 589.557 1059.32 584.264 1058 579C991.67 579 925.34 579 857 579C856.34 581.97 855.68 584.94 855 588C854.235 590.52 853.43 593.029 852.586 595.523C852.237 596.562 852.237 596.562 851.88 597.621C851.121 599.874 850.356 602.125 849.59 604.375C849.057 605.951 848.524 607.528 847.991 609.105C846.881 612.39 845.767 615.675 844.65 618.958C843.217 623.175 841.79 627.393 840.366 631.612C839.27 634.859 838.17 638.105 837.069 641.351C836.542 642.907 836.015 644.464 835.489 646.02C834.757 648.185 834.022 650.349 833.285 652.512C832.867 653.744 832.449 654.976 832.018 656.245C831 659 831 659 830 660C827.66 660.098 825.349 660.13 823.008 660.12C822.268 660.121 821.528 660.122 820.766 660.123C818.268 660.124 815.769 660.119 813.271 660.114C811.488 660.113 809.704 660.113 807.921 660.114C803.064 660.114 798.207 660.108 793.349 660.101C788.279 660.095 783.209 660.095 778.139 660.093C768.53 660.09 758.922 660.082 749.314 660.072C738.378 660.061 727.442 660.055 716.507 660.05C694.004 660.04 671.502 660.022 649 660C649.729 655.962 650.905 653.051 652.875 649.438C656.436 642.618 659.19 635.554 661.938 628.375C666.189 617.331 670.781 606.484 675.625 595.688C676.131 594.56 676.131 594.56 676.647 593.41C678.038 590.31 679.429 587.21 680.821 584.111C684.74 575.374 688.559 566.595 692.375 557.812C693.799 554.538 695.224 551.263 696.648 547.988C697.182 546.761 697.182 546.761 697.727 545.509C701.796 536.163 705.898 526.831 710 517.5C715.856 504.177 721.691 490.844 727.5 477.5C733.291 464.199 739.103 450.907 744.938 437.625C745.31 436.776 745.683 435.928 746.067 435.054C749.089 428.174 752.112 421.296 755.135 414.417C757.778 408.403 760.421 402.389 763.062 396.375C763.435 395.526 763.808 394.678 764.192 393.803C770.002 380.573 775.785 367.331 781.553 354.082C787.387 340.682 793.255 327.297 799.135 313.917C804.612 301.454 810.066 288.981 815.5 276.5C826.509 251.218 837.563 225.954 848.75 200.75C849.203 199.729 849.656 198.707 850.122 197.655C852.884 191.448 855.711 185.273 858.579 179.114C860.106 175.767 861.551 172.382 863 169ZM958 299C954.547 307.048 951.441 315.156 948.586 323.434C947.975 325.189 947.975 325.189 947.352 326.98C946.478 329.492 945.606 332.003 944.735 334.516C942.398 341.257 940.047 347.994 937.695 354.73C937.456 355.416 937.217 356.101 936.971 356.807C932.14 370.648 927.213 384.455 922.25 398.25C920.707 402.542 919.164 406.833 917.621 411.125C917.244 412.174 916.867 413.224 916.478 414.305C912.445 425.531 908.446 436.769 904.461 448.012C903.7 450.158 902.939 452.303 902.177 454.448C901.133 457.387 900.092 460.326 899.051 463.266C898.739 464.142 898.428 465.018 898.107 465.921C896.651 469.384 896.651 469.384 896 473C937.25 473 978.5 473 1021 473C1018.56 464.827 1018.56 464.827 1015.83 456.783C1015.43 455.662 1015.03 454.541 1014.61 453.386C1014.18 452.196 1013.75 451.007 1013.31 449.781C1012.85 448.498 1012.38 447.215 1011.92 445.932C1010.69 442.5 1009.45 439.069 1008.21 435.638C1006.91 432.029 1005.61 428.418 1004.31 424.808C1002.2 418.961 1000.09 413.115 997.982 407.269C995.355 399.985 992.731 392.7 990.109 385.414C989.735 384.374 989.361 383.333 988.975 382.261C988.239 380.217 987.504 378.172 986.768 376.128C984.978 371.153 983.186 366.178 981.395 361.203C976.963 348.897 972.532 336.59 968.102 324.283C966.169 318.915 964.237 313.547 962.305 308.18C961.659 306.385 961.013 304.591 960.367 302.796C960.101 302.059 959.836 301.322 959.562 300.562C959.377 300.046 959.191 299.531 959 299C958.67 299 958.34 299 958 299Z" fill="white"/>
<path d="M581 706C1031.78 706 1482.56 706 1947 706C1947 737.02 1947 768.04 1947 800C1496.22 800 1045.44 800 581 800C581 768.98 581 737.96 581 706Z" fill="white"/>
<path d="M860 29C1218.71 29 1577.42 29 1947 29C1947 60.02 1947 91.04 1947 123C1588.29 123 1229.58 123 860 123C860 91.98 860 60.96 860 29Z" fill="white"/>
<path d="M1713 849C1758.11 849 1758.11 849 1762.65 853.43C1767.83 859.46 1770.42 864.909 1770 873C1768.81 879.822 1765.4 884.779 1761 890C1761.72 890.206 1762.44 890.412 1763.19 890.625C1767.7 892.833 1770.13 896.224 1772.31 900.688C1774.11 909.329 1773.7 918.189 1768.86 925.785C1765.38 930.261 1761.52 932.875 1756 934C1754.53 934.083 1753.07 934.118 1751.6 934.114C1750.73 934.113 1749.85 934.113 1748.95 934.113C1747.59 934.105 1747.59 934.105 1746.2 934.098C1745.36 934.097 1744.52 934.096 1743.65 934.095C1740.52 934.089 1737.38 934.075 1734.25 934.062C1727.24 934.042 1720.22 934.021 1713 934C1713 905.95 1713 877.9 1713 849ZM1728 863C1728 869.6 1728 876.2 1728 883C1730.85 883.041 1733.69 883.082 1736.62 883.125C1737.51 883.143 1738.4 883.161 1739.31 883.18C1743.91 883.212 1747.74 882.954 1752 881C1754.97 876.738 1755.67 873.137 1755 868C1752.65 864.804 1750.82 863.721 1747 863C1745.49 862.922 1743.97 862.892 1742.45 862.902C1741.69 862.905 1740.93 862.907 1740.15 862.91C1739.19 862.919 1738.23 862.928 1737.25 862.938C1734.2 862.958 1731.14 862.979 1728 863ZM1728 897C1728 904.59 1728 912.18 1728 920C1731.16 920.041 1734.31 920.082 1737.56 920.125C1738.54 920.143 1739.52 920.161 1740.53 920.18C1745.73 920.213 1750.17 920.018 1755 918C1757.25 915.15 1757.25 912.488 1757.19 908.938C1757.18 908.08 1757.17 907.223 1757.17 906.34C1757.09 903.845 1757.09 903.845 1756 901C1749.93 896.616 1743.87 896.864 1736.69 896.938C1733.82 896.958 1730.95 896.979 1728 897Z" fill="white"/>
<path d="M1176 849C1180.95 849 1185.9 849 1191 849C1202.48 870.579 1202.48 870.579 1207.01 880.789C1210.22 887.864 1214.08 894.137 1218 901C1218.33 883.84 1218.66 866.68 1219 849C1223.62 849 1228.24 849 1233 849C1233 877.05 1233 905.1 1233 934C1227.72 934 1222.44 934 1217 934C1216.32 932.632 1215.64 931.265 1214.95 929.855C1209.89 919.683 1204.78 909.548 1199.44 899.52C1196.53 894.053 1193.77 888.544 1191 883C1190.67 899.83 1190.34 916.66 1190 934C1185.38 934 1180.76 934 1176 934C1176 905.95 1176 877.9 1176 849Z" fill="white"/>
<path d="M1399 849C1443.87 849 1443.87 849 1449.94 852.875C1455.98 862.032 1458.64 871.007 1457 882C1454.71 888.587 1449.65 892.285 1444 896C1443.01 896.66 1442.02 897.32 1441 898C1441.41 898.427 1441.82 898.853 1442.25 899.293C1448.72 906.298 1463 923.651 1463 934C1457.06 934 1451.12 934 1445 934C1444.12 932.421 1443.24 930.842 1442.33 929.215C1441.16 927.122 1439.99 925.03 1438.81 922.938C1438.23 921.899 1437.66 920.861 1437.06 919.791C1434.56 915.348 1432.1 910.989 1429.07 906.879C1427 904 1427 904 1427 902C1422.39 899.407 1422.39 899.407 1414 899C1414 910.55 1414 922.1 1414 934C1409.05 934 1404.1 934 1399 934C1399 905.95 1399 877.9 1399 849ZM1414 863C1414 870.26 1414 877.52 1414 885C1416.83 885.041 1419.65 885.082 1422.56 885.125C1423.44 885.143 1424.31 885.161 1425.22 885.18C1430.21 885.215 1434.3 884.731 1439 883C1441.95 879.956 1442.26 877.03 1442.5 872.938C1442.39 869.154 1442.32 868.35 1439.69 865.438C1436.05 863.493 1433.39 862.876 1429.33 862.902C1428.13 862.906 1428.13 862.906 1426.89 862.91C1425.88 862.919 1424.86 862.928 1423.81 862.938C1420.57 862.958 1417.34 862.979 1414 863Z" fill="white"/>
<path d="M1366.56 849.062C1373.69 853.078 1379.69 858.38 1383 866C1383.63 868.73 1383.85 871.186 1384 874C1379.45 876.204 1374.97 876.588 1370 877C1369.71 876.397 1369.42 875.793 1369.12 875.172C1366.5 870.063 1364.43 866.45 1359 864C1353.19 863.343 1348.12 864.038 1343 867C1336.73 872.808 1335.24 878.491 1334.8 886.797C1334.69 896.106 1334.78 904.848 1339.88 913C1344.35 917.207 1348.15 918.666 1354.23 919.14C1359.82 918.857 1365.99 917.007 1370 913C1370.46 910.567 1370.46 910.567 1370.63 907.875C1370.81 905.462 1370.81 905.462 1371 903C1365.39 903 1359.78 903 1354 903C1354 898.38 1354 893.76 1354 889C1364.23 889 1374.46 889 1385 889C1385.23 893.72 1385.43 898.42 1385.55 903.142C1385.6 904.744 1385.67 906.345 1385.76 907.945C1386.46 921.231 1386.46 921.231 1382.88 925.568C1380.32 927.383 1377.87 928.727 1375 930C1374.25 930.411 1373.49 930.822 1372.71 931.246C1363.73 936.104 1352.9 936.4 1342.98 934.387C1334.34 931.293 1327.96 925.386 1323.63 917.375C1316.83 902.378 1316.21 886.659 1321 871C1325.03 861.35 1330.63 854.132 1340.2 849.726C1347.57 846.749 1358.89 846.551 1366.56 849.062Z" fill="white"/>
<path d="M1857 849C1897.85 849 1897.85 849 1904.39 853.727C1915.24 864.808 1917.51 879.642 1917.35 894.715C1916.95 907.203 1914.53 919.063 1905.19 927.875C1892.3 939.25 1871.86 934 1857 934C1857 905.95 1857 877.9 1857 849ZM1871 863C1871 881.81 1871 900.62 1871 920C1884.73 920.848 1884.73 920.848 1896.75 916.062C1903.4 907.011 1902.89 894.766 1902 884C1900.81 876.523 1898.63 870.511 1893.12 865.188C1886.73 861.611 1877.7 863 1871 863Z" fill="white"/>
<path d="M1543 849C1547.62 849 1552.24 849 1557 849C1557 859.89 1557 870.78 1557 882C1566.57 882 1576.14 882 1586 882C1586 871.11 1586 860.22 1586 849C1590.62 849 1595.24 849 1600 849C1600 877.05 1600 905.1 1600 934C1595.38 934 1590.76 934 1586 934C1586 921.46 1586 908.92 1586 896C1576.43 896 1566.86 896 1557 896C1557 908.54 1557 921.08 1557 934C1552.38 934 1547.76 934 1543 934C1543 905.95 1543 877.9 1543 849Z" fill="white"/>
<path d="M1007 849C1011.62 849 1016.24 849 1021 849C1021 859.89 1021 870.78 1021 882C1030.57 882 1040.14 882 1050 882C1050 871.11 1050 860.22 1050 849C1054.62 849 1059.24 849 1064 849C1064 877.05 1064 905.1 1064 934C1059.38 934 1054.76 934 1050 934C1050 921.46 1050 908.92 1050 896C1040.43 896 1030.86 896 1021 896C1021 908.54 1021 921.08 1021 934C1016.38 934 1011.76 934 1007 934C1007 905.95 1007 877.9 1007 849Z" fill="white"/>
<path d="M1805 849C1810.28 849 1815.56 849 1821 849C1821.49 850.454 1821.99 851.907 1822.49 853.405C1824.37 858.937 1826.25 864.469 1828.12 870.001C1828.96 872.451 1829.79 874.901 1830.62 877.352C1836.47 894.628 1836.47 894.628 1842.42 911.871C1842.66 912.563 1842.9 913.255 1843.15 913.967C1844.21 917.018 1845.28 920.066 1846.36 923.112C1846.72 924.14 1847.08 925.168 1847.45 926.227C1847.75 927.088 1848.05 927.95 1848.37 928.838C1849 931 1849 931 1849 934C1843.72 934 1838.44 934 1833 934C1832.18 931.608 1831.35 929.215 1830.5 926.75C1830.24 926.003 1829.98 925.257 1829.71 924.487C1828.56 921.1 1828 918.617 1828 915C1818.43 915 1808.86 915 1799 915C1798.34 917.97 1797.68 920.94 1797 924C1796.35 925.874 1795.65 927.734 1794.88 929.562C1794.26 931.027 1793.64 932.491 1793 934C1788.05 934 1783.1 934 1778 934C1779.69 925.048 1782.71 916.546 1785.62 907.938C1786.17 906.321 1786.71 904.705 1787.25 903.089C1788.33 899.877 1789.41 896.665 1790.5 893.455C1792.49 887.556 1794.47 881.654 1796.44 875.75C1796.75 874.804 1797.07 873.859 1797.4 872.885C1800.04 864.954 1802.54 856.989 1805 849ZM1812 873C1810.66 877.29 1809.33 881.582 1808 885.875C1807.43 887.71 1807.43 887.71 1806.84 889.582C1806.48 890.749 1806.12 891.915 1805.75 893.117C1805.25 894.735 1805.25 894.735 1804.73 896.386C1803.91 898.868 1803.91 898.868 1804 901C1810.27 901 1816.54 901 1823 901C1821.88 897.082 1820.75 893.166 1819.62 889.25C1819.15 887.583 1819.15 887.583 1818.66 885.883C1818.2 884.278 1818.2 884.278 1817.73 882.641C1817.44 881.656 1817.16 880.672 1816.87 879.657C1816.09 877.285 1815.19 875.19 1814 873C1813.34 873 1812.68 873 1812 873Z" fill="white"/>
<path d="M1660 849C1665.28 849 1670.56 849 1676 849C1676.49 850.454 1676.99 851.907 1677.49 853.405C1679.37 858.937 1681.25 864.469 1683.12 870.001C1683.96 872.451 1684.79 874.901 1685.62 877.352C1691.47 894.628 1691.47 894.628 1697.42 911.871C1697.66 912.563 1697.9 913.255 1698.15 913.967C1699.21 917.018 1700.28 920.066 1701.36 923.112C1701.72 924.14 1702.08 925.168 1702.45 926.227C1702.75 927.088 1703.05 927.95 1703.37 928.838C1704 931 1704 931 1704 934C1698.72 934 1693.44 934 1688 934C1687.18 931.608 1686.35 929.215 1685.5 926.75C1685.24 926.003 1684.98 925.257 1684.71 924.487C1683.56 921.1 1683 918.617 1683 915C1673.43 915 1663.86 915 1654 915C1653.34 917.97 1652.68 920.94 1652 924C1651.35 925.874 1650.65 927.734 1649.88 929.562C1649.26 931.027 1648.64 932.491 1648 934C1643.05 934 1638.1 934 1633 934C1634.69 925.048 1637.71 916.546 1640.62 907.938C1641.17 906.321 1641.71 904.705 1642.25 903.089C1643.33 899.877 1644.41 896.665 1645.5 893.455C1647.49 887.556 1649.47 881.654 1651.44 875.75C1651.75 874.804 1652.07 873.859 1652.4 872.885C1655.04 864.954 1657.54 856.989 1660 849ZM1667 873C1665.66 877.29 1664.33 881.582 1663 885.875C1662.43 887.71 1662.43 887.71 1661.84 889.582C1661.48 890.749 1661.12 891.915 1660.75 893.117C1660.25 894.735 1660.25 894.735 1659.73 896.386C1658.91 898.868 1658.91 898.868 1659 901C1665.27 901 1671.54 901 1678 901C1676.88 897.082 1675.75 893.166 1674.62 889.25C1674.15 887.583 1674.15 887.583 1673.66 885.883C1673.2 884.278 1673.2 884.278 1672.73 882.641C1672.44 881.656 1672.16 880.672 1671.87 879.657C1671.09 877.285 1670.19 875.19 1669 873C1668.34 873 1667.68 873 1667 873Z" fill="white"/>
<path d="M1491 849C1496.28 849 1501.56 849 1507 849C1507.49 850.454 1507.99 851.907 1508.49 853.405C1510.37 858.937 1512.25 864.469 1514.12 870.001C1514.96 872.451 1515.79 874.901 1516.62 877.352C1522.47 894.628 1522.47 894.628 1528.42 911.871C1528.66 912.563 1528.9 913.255 1529.15 913.967C1530.21 917.018 1531.28 920.066 1532.36 923.112C1532.72 924.14 1533.08 925.168 1533.45 926.227C1533.75 927.088 1534.05 927.95 1534.37 928.838C1535 931 1535 931 1535 934C1529.72 934 1524.44 934 1519 934C1518.18 931.608 1517.35 929.215 1516.5 926.75C1516.24 926.003 1515.98 925.257 1515.71 924.487C1514.56 921.1 1514 918.617 1514 915C1504.43 915 1494.86 915 1485 915C1484.34 917.97 1483.68 920.94 1483 924C1482.35 925.874 1481.65 927.734 1480.88 929.562C1480.26 931.027 1479.64 932.491 1479 934C1474.05 934 1469.1 934 1464 934C1465.69 925.048 1468.71 916.546 1471.62 907.938C1472.17 906.321 1472.71 904.705 1473.25 903.089C1474.33 899.877 1475.41 896.665 1476.5 893.455C1478.49 887.556 1480.47 881.654 1482.44 875.75C1482.75 874.804 1483.07 873.859 1483.4 872.885C1486.04 864.954 1488.54 856.989 1491 849ZM1498 873C1496.66 877.29 1495.33 881.582 1494 885.875C1493.43 887.71 1493.43 887.71 1492.84 889.582C1492.48 890.749 1492.12 891.915 1491.75 893.117C1491.25 894.735 1491.25 894.735 1490.73 896.386C1489.91 898.868 1489.91 898.868 1490 901C1496.27 901 1502.54 901 1509 901C1507.88 897.082 1506.75 893.166 1505.62 889.25C1505.15 887.583 1505.15 887.583 1504.66 885.883C1504.2 884.278 1504.2 884.278 1503.73 882.641C1503.44 881.656 1503.16 880.672 1502.87 879.657C1502.09 877.285 1501.19 875.19 1500 873C1499.34 873 1498.68 873 1498 873Z" fill="white"/>
<path d="M1124 849C1129.28 849 1134.56 849 1140 849C1140.49 850.454 1140.99 851.907 1141.49 853.405C1143.37 858.937 1145.25 864.469 1147.12 870.001C1147.96 872.451 1148.79 874.901 1149.62 877.352C1155.47 894.628 1155.47 894.628 1161.42 911.871C1161.66 912.563 1161.9 913.255 1162.15 913.967C1163.21 917.018 1164.28 920.066 1165.36 923.112C1165.72 924.14 1166.08 925.168 1166.45 926.227C1166.75 927.088 1167.05 927.95 1167.37 928.838C1168 931 1168 931 1168 934C1162.72 934 1157.44 934 1152 934C1151.18 931.608 1150.35 929.215 1149.5 926.75C1149.24 926.003 1148.98 925.257 1148.71 924.487C1147.56 921.1 1147 918.617 1147 915C1137.43 915 1127.86 915 1118 915C1117.34 917.97 1116.68 920.94 1116 924C1115.35 925.874 1114.65 927.734 1113.88 929.562C1113.26 931.027 1112.64 932.491 1112 934C1107.05 934 1102.1 934 1097 934C1098.69 925.048 1101.71 916.546 1104.62 907.938C1105.17 906.321 1105.71 904.705 1106.25 903.089C1107.33 899.877 1108.41 896.665 1109.5 893.455C1111.49 887.556 1113.47 881.654 1115.44 875.75C1115.75 874.804 1116.07 873.859 1116.4 872.885C1119.04 864.954 1121.54 856.989 1124 849ZM1131 873C1129.66 877.29 1128.33 881.582 1127 885.875C1126.43 887.71 1126.43 887.71 1125.84 889.582C1125.48 890.749 1125.12 891.915 1124.75 893.117C1124.25 894.735 1124.25 894.735 1123.73 896.386C1122.91 898.868 1122.91 898.868 1123 901C1129.27 901 1135.54 901 1142 901C1140.88 897.082 1139.75 893.166 1138.62 889.25C1138.15 887.583 1138.15 887.583 1137.66 885.883C1137.2 884.278 1137.2 884.278 1136.73 882.641C1136.44 881.656 1136.16 880.672 1135.87 879.657C1135.09 877.285 1134.19 875.19 1133 873C1132.34 873 1131.68 873 1131 873Z" fill="white"/>
<path d="M1248 849C1252.62 849 1257.24 849 1262 849C1262.03 850.244 1262.05 851.488 1262.08 852.769C1262.17 857.468 1262.27 862.166 1262.37 866.865C1262.42 868.883 1262.46 870.901 1262.5 872.919C1262.35 894.601 1262.35 894.601 1265 916C1266.83 917.333 1266.83 917.333 1269 918C1270.49 918.99 1270.49 918.99 1272 920C1276.75 920.307 1280.83 920.551 1285 918C1290.53 912.241 1289.61 905.194 1289.61 897.633C1289.63 896.229 1289.64 894.825 1289.66 893.421C1289.7 889.742 1289.72 886.063 1289.74 882.384C1289.76 878.623 1289.8 874.862 1289.84 871.102C1289.92 863.734 1289.96 856.367 1290 849C1294.95 849 1299.9 849 1305 849C1305.07 856.746 1305.12 864.492 1305.16 872.238C1305.17 875.837 1305.19 879.435 1305.23 883.033C1305.26 886.515 1305.28 889.996 1305.29 893.478C1305.29 895.432 1305.32 897.386 1305.34 899.34C1305.34 909.348 1304.75 920.054 1298 928C1291.69 933.97 1285.45 935.502 1277.06 935.375C1276.3 935.387 1275.54 935.398 1274.76 935.41C1268.08 935.376 1262.65 934.06 1257.32 929.914C1256.6 929.159 1255.87 928.403 1255.13 927.625C1254.39 926.875 1253.65 926.125 1252.88 925.352C1248.24 919.548 1247.87 912.745 1247.89 905.536C1247.89 904.275 1247.89 903.014 1247.89 901.715C1247.89 900.354 1247.9 898.993 1247.9 897.633C1247.9 896.229 1247.91 894.825 1247.91 893.421C1247.91 889.742 1247.92 886.063 1247.93 882.384C1247.94 878.623 1247.95 874.862 1247.95 871.102C1247.96 863.734 1247.98 856.367 1248 849Z" fill="white"/>
<path d="M934.001 849C938.621 849 943.241 849 948.001 849C948.026 850.244 948.051 851.488 948.077 852.769C948.172 857.468 948.272 862.166 948.373 866.865C948.416 868.883 948.457 870.901 948.498 872.919C948.352 894.601 948.352 894.601 951.001 916C952.834 917.333 952.834 917.333 955.001 918C956.486 918.99 956.486 918.99 958.001 920C962.753 920.307 966.827 920.551 971.001 918C976.535 912.241 975.605 905.194 975.61 897.633C975.625 896.229 975.642 894.825 975.66 893.421C975.704 889.742 975.724 886.063 975.739 882.384C975.758 878.623 975.8 874.862 975.84 871.102C975.916 863.734 975.964 856.367 976.001 849C980.951 849 985.901 849 991.001 849C991.069 856.746 991.124 864.492 991.156 872.238C991.172 875.837 991.193 879.435 991.227 883.033C991.26 886.515 991.278 889.996 991.285 893.478C991.293 895.432 991.317 897.386 991.341 899.34C991.342 909.348 990.755 920.054 984.001 928C977.689 933.97 971.451 935.502 963.063 935.375C962.303 935.387 961.543 935.398 960.76 935.41C954.078 935.376 948.647 934.06 943.321 929.914C942.596 929.159 941.872 928.403 941.126 927.625C940.386 926.875 939.646 926.125 938.883 925.352C934.237 919.548 933.873 912.745 933.887 905.536C933.887 904.275 933.887 903.014 933.887 901.715C933.892 900.354 933.898 898.993 933.903 897.633C933.905 896.229 933.906 894.825 933.907 893.421C933.911 889.742 933.921 886.063 933.932 882.384C933.942 878.623 933.947 874.862 933.952 871.102C933.963 863.734 933.98 856.367 934.001 849Z" fill="white"/>
<path d="M806.001 849C810.621 849 815.241 849 820.001 849C820.026 850.244 820.051 851.488 820.077 852.769C820.172 857.468 820.272 862.166 820.373 866.865C820.416 868.883 820.457 870.901 820.498 872.919C820.352 894.601 820.352 894.601 823.001 916C824.834 917.333 824.834 917.333 827.001 918C828.486 918.99 828.486 918.99 830.001 920C834.753 920.307 838.827 920.551 843.001 918C848.535 912.241 847.605 905.194 847.61 897.633C847.625 896.229 847.642 894.825 847.66 893.421C847.704 889.742 847.724 886.063 847.739 882.384C847.758 878.623 847.8 874.862 847.84 871.102C847.916 863.734 847.964 856.367 848.001 849C852.951 849 857.901 849 863.001 849C863.069 856.746 863.124 864.492 863.156 872.238C863.172 875.837 863.193 879.435 863.227 883.033C863.26 886.515 863.278 889.996 863.285 893.478C863.293 895.432 863.317 897.386 863.341 899.34C863.342 909.348 862.755 920.054 856.001 928C849.689 933.97 843.451 935.502 835.063 935.375C834.303 935.387 833.543 935.398 832.76 935.41C826.078 935.376 820.647 934.06 815.321 929.914C814.596 929.159 813.872 928.403 813.126 927.625C812.386 926.875 811.646 926.125 810.883 925.352C806.237 919.548 805.873 912.745 805.887 905.536C805.887 904.275 805.887 903.014 805.887 901.715C805.892 900.354 805.898 898.993 805.903 897.633C805.905 896.229 805.906 894.825 805.907 893.421C805.911 889.742 805.921 886.063 805.932 882.384C805.942 878.623 805.947 874.862 805.952 871.102C805.963 863.734 805.98 856.367 806.001 849Z" fill="white"/>
<path d="M588 849C630.619 849 630.619 849 637.875 855.625C643.096 863.917 644.369 873.128 642.461 882.707C640.388 890.304 637.251 895.476 630.781 900.02C627.148 902.019 623.668 902.12 619.578 902.098C618.654 902.095 617.73 902.093 616.778 902.09C615.614 902.081 614.45 902.072 613.25 902.062C609.537 902.042 605.825 902.021 602 902C602 912.56 602 923.12 602 934C597.38 934 592.76 934 588 934C588 905.95 588 877.9 588 849ZM602 863C602 871.25 602 879.5 602 888C612.775 888.627 612.775 888.627 623 886C626.555 882.445 627.329 879.315 627.625 874.438C627.521 871.503 627.446 869.658 625.789 867.215C620.687 862.774 615.68 862.859 609.25 862.938C606.858 862.958 604.465 862.979 602 863Z" fill="white"/>
<path d="M740 849C758.48 849 776.96 849 796 849C796 853.62 796 858.24 796 863C789.07 863 782.14 863 775 863C775 886.43 775 909.86 775 934C770.38 934 765.76 934 761 934C761 910.57 761 887.14 761 863C754.07 863 747.14 863 740 863C740 858.38 740 853.76 740 849Z" fill="white"/>
<path d="M650 849C668.48 849 686.96 849 706 849C706 853.62 706 858.24 706 863C699.07 863 692.14 863 685 863C685 886.43 685 909.86 685 934C680.38 934 675.76 934 671 934C671 910.57 671 887.14 671 863C664.07 863 657.14 863 650 863C650 858.38 650 853.76 650 849Z" fill="white"/>
<path d="M904.001 849C908.621 849 913.241 849 918.001 849C918.092 857.12 918.165 865.24 918.208 873.36C918.229 877.132 918.257 880.904 918.303 884.676C918.347 888.326 918.37 891.976 918.38 895.627C918.388 897.009 918.402 898.391 918.424 899.773C918.594 910.993 917.888 922.346 910.001 931C903.103 935.11 895.899 935.796 888.001 935C882.687 933.376 878.936 930.784 876.001 926C872.773 919.88 872.376 913.84 873.001 907C874.808 905.193 877.555 905.577 880.001 905.375C881.094 905.28 882.187 905.184 883.313 905.086C884.2 905.058 885.087 905.029 886.001 905C887.522 906.521 887.446 908.217 887.813 910.312C888.685 914.313 889.462 916.641 893.001 919C896.146 919.803 896.146 919.803 899.001 920C899.001 919.34 899.001 918.68 899.001 918C899.661 918 900.321 918 901.001 918C903.57 903.784 903.445 889.464 903.626 875.062C903.664 872.529 903.703 869.996 903.743 867.463C903.838 861.309 903.922 855.154 904.001 849Z" fill="white"/>
<path d="M1930 849C1934.62 849 1939.24 849 1944 849C1944 877.05 1944 905.1 1944 934C1939.38 934 1934.76 934 1930 934C1930 905.95 1930 877.9 1930 849Z" fill="white"/>
</svg>
