<svg width="625" height="381" viewBox="0 0 625 381" fill="none" xmlns="http://www.w3.org/2000/svg">
<g clip-path="url(#clip0_1534_1995)">
<path d="M446.919 136.76C444.979 136.76 443.039 136.81 441.099 136.76C436.209 136.61 436.179 136.59 435.709 131.9C435.159 126.55 434.219 121.27 432.959 116.05C421.929 70.3601 385.719 34.7101 339.899 23.9301C278.119 9.40006 213.959 44.1501 193.049 106.4C190.189 114.91 188.349 123.67 187.479 132.6C187.119 136.29 186.929 136.18 183.419 136.13C178.939 136.06 174.459 136.05 169.989 135.89C166.629 135.77 166.539 135.67 166.819 132.18C167.579 122.63 169.269 113.21 172.189 104.1C187.229 57.0801 217.869 24.8301 264.329 8.03006C283.649 1.04006 303.709 -1.31994 324.239 0.700058C370.669 5.27006 406.889 27.1001 433.019 65.5301C446.879 85.9101 454.579 108.65 456.429 133.3C456.689 136.69 456.699 136.72 453.199 136.8C451.109 136.85 449.019 136.8 446.929 136.8V136.76H446.919Z" fill="white"/>
<path d="M181.01 209.5C187.64 211.12 193.42 212.54 199.32 213.33C217.14 215.7 234.42 213.37 251.3 207.43C268.03 201.54 283.29 192.82 298.06 183.16C303.68 179.48 309.16 175.59 314.9 172.11C326.57 165.04 339.04 160.38 352.92 160.51C361.88 160.59 370.25 163.19 378.39 166.74C387.71 170.8 396.62 175.64 405.52 180.51C418.09 187.38 430.65 194.3 444.37 198.7C446.4 199.35 446.52 200.22 445.79 201.95C443.62 207.04 441.22 212 438.47 216.8C436.9 219.52 436.81 219.6 434.11 218.17C426.47 214.11 418.87 209.97 411.27 205.83C402.36 200.97 393.37 196.3 383.92 192.54C369.46 186.78 355.35 187.67 341.38 194.13C333.62 197.72 326.49 202.35 319.63 207.4C303.7 219.13 286.89 229.27 268.22 236.11C248.95 243.17 229.2 245.68 208.79 242.88C204.44 242.28 201.1 240.7 198.35 237.04C191.96 228.56 185.97 219.87 181 209.52L181.01 209.5Z" fill="white"/>
<path d="M204.889 191.64C196.459 191.53 185.699 190.06 175.059 187.53C172.879 187.01 171.779 186.13 171.219 183.93C169.339 176.54 167.899 169.08 166.999 161.52C166.549 157.68 166.799 157.38 170.749 157.95C183.209 159.72 195.729 160.01 208.269 159.49C230.239 158.58 251.399 154.01 271.709 145.46C280.499 141.76 289.409 138.31 298.709 135.98C309.109 133.38 319.649 133.05 330.269 133.92C352.839 135.76 374.559 141.89 396.439 147.15C415.029 151.61 433.679 155.54 452.839 156.58C456.429 156.77 456.449 156.87 456.239 160.48C455.869 166.91 454.509 173.19 453.149 179.45C452.489 182.46 452.369 182.45 449.309 181.98C437.739 180.2 426.729 176.48 415.829 172.36C401.329 166.87 387.189 160.45 372.439 155.58C348.099 147.54 324.559 149.26 301.729 160.91C286.709 168.57 271.719 176.29 255.889 182.2C240.249 188.04 224.189 191.69 204.899 191.66L204.889 191.64Z" fill="white"/>
<path d="M416.411 135.38C409.631 135.36 403.431 133.95 397.231 133.97C391.091 133.99 389.651 130.89 388.231 125.74C379.931 95.75 360.521 76.29 330.451 68.59C287.901 57.7 244.911 84.26 234.611 127.01C233.261 132.62 233.271 132.68 227.521 133.34C221.891 133.99 216.251 134.56 210.611 135.07C206.901 135.4 206.741 135.19 207.251 131.54C209.631 114.54 215.571 98.88 225.611 84.94C242.821 61.03 265.971 46.19 295.071 41.55C350.861 32.65 400.401 68.69 413.441 118.65C414.841 124 415.811 129.4 416.411 135.4V135.38Z" fill="white"/>
<path d="M226.488 263.04C231.648 262.27 236.698 262.43 241.728 261.95C265.188 259.69 286.748 251.81 306.978 240.04C314.328 235.76 321.338 230.92 328.658 226.57C337.298 221.44 346.378 217.38 356.448 215.8C364.738 214.5 372.798 215.29 380.768 217.7C390.078 220.52 416.908 232.63 423.888 237.23C423.988 238.6 422.878 239.33 422.138 240.18C415.978 247.32 409.198 253.81 401.878 259.77C399.888 261.39 398.228 261.64 395.868 260.54C388.558 257.15 380.998 254.37 373.448 251.54C356.008 245.01 338.958 246.1 322.038 253.37C315.438 256.21 309.088 259.49 302.828 262.97C289.698 270.26 275.828 275.59 261.228 279.13C257.888 279.94 254.918 279.79 251.738 278.27C242.848 274.02 234.288 269.27 226.488 263.04Z" fill="white"/>
<path d="M371.49 278.26C340.51 291.93 308.56 294.65 275.68 286.63C275.54 285.95 275.69 285.51 276.1 285.34C287.43 280.8 298.28 275.1 310 271.47C326.85 266.26 343.46 266.56 359.97 272.76C363.86 274.22 367.74 275.69 371.63 277.15C371.59 277.52 371.54 277.88 371.5 278.25L371.49 278.26Z" fill="white"/>
<path d="M588.321 379.18C583.941 379.82 580.091 379.83 575.051 379.03C579.551 376.96 578.831 373.92 578.511 370.92C578.151 367.54 577.941 364.14 577.661 360.77C576.141 360.45 576.281 361.68 576.001 362.37C574.451 366.24 572.951 370.14 571.431 374.02C571.101 374.85 570.811 375.7 570.431 376.51C570.061 377.31 569.691 378.2 568.581 378.19C567.471 378.18 567.061 377.3 566.721 376.49C565.011 372.36 563.411 368.18 561.641 364.08C561.091 362.79 560.981 361.18 559.341 360.14C558.971 364.32 558.701 368.29 558.231 372.23C557.911 374.94 558.151 377.24 561.711 378.45C558.311 380.14 555.561 379.79 551.871 378.91C556.261 376.69 555.871 373.03 556.221 369.69C556.621 365.83 556.771 361.94 557.281 358.1C557.631 355.49 557.351 353.4 554.311 352.47C559.131 349.72 562.821 350.84 564.651 355.3C566.511 359.82 568.361 364.34 570.361 369.22C572.731 364.76 574.131 360.35 575.821 356.08C578.121 350.28 577.731 351.32 583.251 351.21C583.991 351.2 584.741 351.24 585.471 351.34C585.691 351.37 585.871 351.67 586.061 351.85C583.301 354.95 583.351 354.95 583.821 359.91C584.211 364.07 584.411 368.24 584.791 372.4C585.151 376.32 585.211 376.32 588.331 379.16L588.321 379.18Z" fill="white"/>
<path d="M222.781 379.32C218.531 379.67 214.711 379.95 210.691 378.78C213.461 377.35 213.931 375.22 213.801 372.5C213.581 367.89 213.771 363.26 213.731 358.65C213.701 356.1 214.691 353.08 210.371 352C214.861 351.02 218.731 351.19 222.521 351.35C223.001 352.48 222.491 352.93 221.701 353.18C220.341 353.6 219.911 354.55 219.921 355.89C219.961 358.98 219.931 362.07 219.931 365.98C224.321 362.55 227.551 358.98 230.931 355.59C231.661 354.86 231.461 353.92 230.471 353.36C229.871 353.02 228.991 353.02 228.961 351.62C232.181 350.88 235.411 351.15 239.121 351.47C238.041 353.72 235.871 354 234.651 355.35C233.161 357 231.451 358.47 229.791 359.96C228.791 360.86 228.371 361.63 229.261 362.97C231.971 367.06 234.611 371.21 237.121 375.44C237.911 376.78 239.591 377.04 240.571 379.03C236.511 380.09 232.701 379.54 229.081 379.4C227.691 377.43 231.061 377.61 230.171 376.06C229.581 375.03 228.951 374.01 228.321 373.01C226.891 370.76 225.431 368.52 223.991 366.28C218.811 369.53 218.301 373.99 222.801 379.33L222.781 379.32Z" fill="white"/>
<path d="M144.619 361.12C144.619 365.54 144.709 370.11 144.579 374.66C144.509 377.05 146.969 377 148.079 378.7C145.009 380.18 142.139 379.7 137.949 378.85C143.379 377.08 142.329 373.43 142.389 370.2C142.419 368.71 142.409 367.21 142.389 365.72C142.329 360.9 143.439 355.83 138.799 352.02C145.049 350.42 145.329 350.52 148.649 354.88C152.619 360.1 156.599 365.32 160.569 370.55C162.079 369.97 161.389 368.75 161.419 367.86C161.519 365.18 161.409 362.49 161.469 359.8C161.539 356.74 162.029 353.55 157.789 352.15C161.549 350.95 162.599 350.92 166.749 351.7C167.059 352.66 166.439 353.01 165.709 353.29C164.219 353.85 163.859 355 163.869 356.48C163.919 362 163.939 367.52 163.869 373.05C163.849 374.84 164.679 376.16 165.619 377.52C166.089 378.19 166.119 378.89 165.209 379.33C163.169 380.31 159.559 379.33 158.209 377.52C154.279 372.26 150.319 367.03 146.359 361.79C146.019 361.34 145.749 360.73 144.609 361.1L144.619 361.12Z" fill="white"/>
<path d="M199.751 359C197.581 358.56 197.381 357.01 196.681 355.95C195.701 354.47 194.391 353.68 192.691 353.37C187.321 352.42 186.571 353.04 186.571 358.52C186.571 359.27 186.451 360.04 186.601 360.75C186.861 362.05 185.611 364.13 187.811 364.46C189.721 364.75 192.101 365.35 193.181 362.64C193.391 362.11 193.611 361.52 194.591 361.3C195.921 363.62 196.631 366.15 196.531 369.59C193.981 367.44 191.721 366.03 188.701 366.46C187.291 366.66 186.461 366.9 186.561 368.51C186.631 369.7 186.421 370.92 186.601 372.08C186.921 374.06 185.291 377.1 188.661 377.61C193.021 378.27 195.601 377.9 197.381 374.86C198.151 373.56 198.341 371.68 200.511 371.03C201.181 374.3 199.811 376.94 198.841 379.62C198.631 380.2 197.871 380.31 197.281 380.23C191.051 379.35 184.771 380.16 178.531 379.74C178.281 379.72 178.051 379.48 177.371 379.09C181.381 376.96 180.281 373.31 180.311 369.99C180.341 366.41 180.321 362.83 180.311 359.25C180.311 356.55 180.981 353.6 177.461 352.45C178.321 350.91 179.461 351.37 180.421 351.3C185.751 350.94 191.141 351.98 196.431 350.68C197.261 350.48 197.981 350.84 198.241 351.6C199.041 353.93 200.301 356.19 199.751 359.01V359Z" fill="white"/>
<path d="M319.141 349.92C321.021 353.03 321.511 355.81 322.081 358.54C322.141 358.85 321.781 359.35 321.481 359.61C321.061 359.99 320.591 359.65 320.341 359.33C319.631 358.38 319.031 357.35 318.321 356.4C316.731 354.29 314.731 352.85 311.991 352.66C309.371 352.48 307.711 353.44 307.041 355.54C306.351 357.71 307.181 359.41 308.961 360.54C310.451 361.49 312.121 362.19 313.751 362.89C315.531 363.66 317.321 364.37 318.911 365.51C321.481 367.35 322.371 369.89 322.021 372.93C321.661 376.06 319.871 378.05 316.981 379.16C314.521 380.11 312.001 380.35 309.571 379.35C307.631 378.55 305.941 378.63 304.291 380.04C302.651 377.6 302.871 374.95 302.191 372.56C302.101 372.24 302.381 371.64 302.671 371.41C303.231 370.98 303.801 371.29 304.181 371.81C304.881 372.77 305.461 373.82 306.211 374.74C307.901 376.82 310.101 378.04 312.811 377.86C314.491 377.75 315.991 377.1 316.601 375.24C317.241 373.27 316.701 371.63 315.041 370.55C313.691 369.67 312.141 369.07 310.651 368.4C309.021 367.67 307.291 367.16 305.731 366.3C302.381 364.46 300.931 361.48 301.341 357.72C301.731 354.16 304.141 351.73 307.971 350.77C310.041 350.25 312.091 350.26 314.121 351.03C315.931 351.72 317.781 352.73 319.131 349.91L319.141 349.92Z" fill="white"/>
<path d="M457.642 352.37C453.802 353.43 453.992 356.37 453.852 359.08C453.632 363.25 453.382 367.43 453.402 371.61C453.432 376.03 455.822 378.17 460.172 378.06C464.452 377.96 466.972 375.67 466.912 371.45C466.832 366.38 466.192 361.32 466.202 356.25C466.202 353.53 463.512 353.85 462.412 352.01C465.672 350.56 468.732 351.55 471.582 351.38C472.082 352.76 471.452 353.06 470.932 353.2C468.992 353.71 468.412 354.92 468.572 356.86C468.902 360.87 469.042 364.91 469.332 368.93C469.862 376.38 466.972 379.81 459.532 380.27C457.762 380.38 455.942 380.23 454.202 379.9C449.352 378.99 446.962 376.11 447.042 371.17C447.112 366.99 447.322 362.81 447.692 358.65C447.942 355.85 448.162 353.28 444.172 352.61C447.312 350.91 453.692 350.82 457.642 352.36V352.37Z" fill="white"/>
<path d="M52.8592 378.84C48.8892 379.43 45.0392 379.34 41.1292 378.92C41.0792 376.75 43.8392 377.39 43.8192 375.58C43.8092 374.09 43.8592 372.6 43.8492 371.11C43.8492 365.59 43.8492 360.07 43.8192 354.55C43.8192 354.26 43.7093 353.97 43.6493 353.69C39.6892 352.85 39.3192 352.98 37.5292 355.92C37.0692 356.68 36.6892 357.5 36.2892 358.29C35.9192 359.01 35.3992 359.57 34.5492 359.19C33.9192 358.91 33.9792 358.21 34.0892 357.64C34.3292 356.32 34.5992 355.01 34.8992 353.7C35.6592 350.34 35.6492 350.58 39.2692 350.83C44.6092 351.2 49.9992 351.52 55.3092 350.61C57.3992 350.25 58.4392 350.63 58.7592 352.72C58.7992 353.01 59.0093 353.3 58.9893 353.58C58.7993 355.5 61.1792 358.1 58.9592 359.08C57.2492 359.84 56.9492 356.69 56.0292 355.3C54.6492 353.23 52.8592 352.77 50.1592 353.32C50.1592 360.48 50.2893 367.76 50.0793 375.02C50.0193 377.25 52.6392 376.82 52.8592 378.84Z" fill="white"/>
<path d="M500.28 378.81C496.13 379.55 492.33 379.04 488.69 379.17C488.29 378.26 488.31 377.54 488.96 377.4C491.2 376.91 491.06 375.26 491.06 373.58C491.04 367.76 491.09 361.95 491.02 356.13C491.01 355.1 491.73 353.55 490.03 353.17C488.56 352.85 486.96 352.88 485.92 354.22C485.11 355.27 484.53 356.5 483.84 357.64C483.4 358.37 483.18 359.37 481.55 359.23C480.87 356.35 482.05 353.67 482.95 351.01C483.29 350 484.44 350.41 485.32 350.53C491.24 351.32 497.16 351.4 503.08 350.47C504.46 350.25 505.43 350.44 505.76 351.97C506.19 354.01 506.67 356.03 507.04 358.08C507.1 358.41 506.82 358.97 506.53 359.16C505.95 359.53 505.35 359.22 505.01 358.69C504.53 357.94 504.2 357.1 503.75 356.33C501.93 353.16 501.85 353.13 497.3 353.28C497.3 360.54 497.37 367.82 497.26 375.1C497.23 377.15 499.4 376.86 500.29 378.8L500.28 378.81Z" fill="white"/>
<path d="M406.301 378.58C410.071 377.29 409.551 374.39 409.531 371.66C409.501 367.33 409.581 363 409.501 358.67C409.461 356.16 410.601 353.1 406.121 352.11C410.691 350.92 414.511 351.1 419.671 351.57C414.891 353.75 415.791 357.12 415.771 360.18C415.741 364.36 415.761 368.54 415.771 372.72C415.771 375.14 416.674 377.06 418.481 378.48C415.801 379.94 410.561 380.06 406.301 378.57V378.58Z" fill="white"/>
<path d="M76.6597 376.5C76.5597 378.37 75.0097 379.92 73.1997 379.93C71.2097 379.94 69.5997 378.18 69.6997 376.1C69.7997 373.98 71.5197 372.5 73.5997 372.74C75.4397 372.95 76.7597 374.57 76.6597 376.49V376.5Z" fill="white"/>
<path d="M397.66 378.86C393.9 380.05 390.67 379.57 387.48 379.41C386.88 379.38 386.34 378.82 386.78 378.17C389.17 374.59 385.1 373.1 384.26 370.58C383.49 368.25 380.95 369.39 379.2 368.94C377.7 374.61 378.07 376.11 381.44 378.43C378.84 379.99 372.9 380.1 369.1 378.47C372.08 377.34 372.47 375.16 372.35 372.47C372.14 368.01 372.3 363.52 372.29 359.05C372.29 356.023 371.163 353.413 368.91 351.22C375.88 351.46 382.19 350.31 388.34 352.54C391.25 353.6 393.62 355.43 394.38 358.63C395.16 361.94 394.58 365 391.5 366.88C389.72 367.97 389.77 368.88 390.82 370.37C392.83 373.24 394.22 376.54 397.66 378.87V378.86ZM378.46 364.86C378.46 365.83 378.7 366.55 379.66 366.98C383.06 368.49 387.64 366.01 388.16 362.35C388.98 356.47 385.19 352.83 378.47 353.42C378.47 357.21 378.48 361.03 378.47 364.86H378.46Z" fill="white"/>
<path d="M9.48 369.83C8.9 373.65 8.09 377.21 13.01 378.86C8.57 379.78 4.43 379.76 0 378.92C3.35 377.28 2.97 374.5 2.93 371.78C2.86 367.31 2.82 362.83 2.95 358.36C3.02 355.79 3.04 353.4 0.15 352.46C0.6 350.86 1.67 351.27 2.45 351.26C5.58 351.21 8.71 351.22 11.84 351.27C14.86 351.32 17.75 351.98 20.36 353.59C23.7 355.65 25.5 359.23 24.91 362.62C24.24 366.44 21.79 368.51 18.18 369.56C15.37 370.38 12.56 369.93 9.48 369.83ZM9.15 364.33C9.2 367.79 10.37 368.69 13.77 367.93C16.65 367.29 18.39 365.38 18.8 362.44C19.44 357.76 16.52 353.91 11.86 353.25C10.13 353 8.96 353.27 9.13 355.45C9.26 357.07 9.15 358.71 9.15 360.34C9.15 361.67 9.13 363.01 9.15 364.34V364.33Z" fill="white"/>
<path d="M604.701 379.09C602.101 379.95 599.421 379.79 596.121 379.05C600.651 374.84 600.811 369.15 602.831 364.24C603.791 361.91 604.341 359.42 605.181 357.04C605.841 355.17 606.631 353.36 604.021 351.74C608.321 351.07 612.191 351.14 616.771 351.37C614.611 353.5 615.331 355.45 616.051 357.5C617.681 362.12 619.181 366.79 620.731 371.44C621.611 374.06 621.871 377 624.791 378.79C620.901 379.79 617.341 379.83 613.611 379.18C613.471 377.3 616.631 377.28 615.471 375.12C614.771 373.83 614.441 372.34 613.931 370.95C613.601 370.06 612.811 370.11 612.091 370.11C610.011 370.09 607.891 370.33 605.851 370.05C603.201 369.69 602.961 371.57 602.461 373.22C601.971 374.88 601.081 376.76 603.751 377.56C604.281 377.72 604.821 378.05 604.711 379.1L604.701 379.09ZM604.501 367.88C607.351 368.28 609.961 368.14 612.781 367.95C612.061 363.57 610.201 359.67 608.651 355.52C607.041 359.54 605.281 363.4 604.501 367.88Z" fill="white"/>
<path d="M360.101 379C355.821 379.86 352.261 379.86 348.761 379.16C348.441 377.32 350.881 377.68 350.571 376.28C350.191 374.55 350.071 372.39 348.971 371.25C346.531 368.73 343.111 370.58 340.141 370.12C338.611 369.89 338.231 370.99 337.791 372.21C336.491 375.86 336.451 375.87 339.951 378.84C337.161 380.12 334.471 379.64 331.621 379.25C336.441 371.88 337.601 363.43 340.681 355.72C341.401 353.91 339.651 353.14 339.491 351.47C343.401 350.89 347.191 351.34 351.641 351.18C349.751 353.67 350.411 355.75 351.211 357.94C352.681 362 353.911 366.14 355.301 370.23C356.321 373.25 356.891 376.5 360.091 379H360.101ZM347.831 367.9C346.861 363.46 345.421 359.44 343.621 354.9C341.891 359.48 340.401 363.46 339.471 367.85C342.371 368.24 344.961 368.19 347.831 367.9Z" fill="white"/>
<path d="M255.09 351.42H268.52C266.19 353.59 267.25 355.63 267.95 357.71C269.57 362.51 271.11 367.33 272.71 372.14C273.5 374.5 274.01 377.01 276.35 378.86C272.66 379.81 269.13 379.82 264.68 379.11C268.84 376.62 267.23 373.59 265.85 371.42C264.07 368.63 260.68 370.55 258.03 370.15C256.75 369.96 255.45 369.91 254.72 371.6C253.2 375.11 253.37 376.12 256.76 378.74C253.84 380.13 251.12 379.84 247.66 378.88C250.93 376.93 251.46 373.96 252.37 371.2C253.81 366.81 255.19 362.41 256.67 358.03C257.41 355.85 258.74 353.72 255.09 351.42ZM260.35 354.84C258.77 359.45 257.17 363.42 256.24 367.91C259.1 368.21 261.7 368.2 264.66 367.86C263.55 363.46 262.29 359.33 260.35 354.84Z" fill="white"/>
<path d="M543.71 378.8C539.99 379.73 536.41 379.85 532.78 379.21C532.43 377.25 535.95 377.54 534.61 375.23C533.88 373.97 533.61 372.44 533.15 371.03C532.85 370.11 532.08 370.13 531.35 370.12C529.71 370.09 528.07 370.1 526.44 370.11C522.79 370.13 521.26 371.68 520.98 375.25C520.79 377.57 523.44 377.11 524.05 378.6C521.1 379.93 519.29 379.98 515.25 378.73C518.17 377.14 518.7 374.36 519.56 371.76C521.14 366.96 522.74 362.16 524.23 357.33C524.8 355.47 526.68 353.37 522.59 351.77C527.55 351.15 531.43 351.06 536.14 351.49C533.35 353.61 534.61 355.67 535.25 357.66C536.94 362.89 538.75 368.09 540.44 373.32C541.09 375.31 541.83 377.19 543.73 378.81L543.71 378.8ZM527.57 354.97C526.62 357.75 525.84 359.68 525.32 361.67C524.78 363.73 523.53 365.64 523.74 368.01H532.11C530.75 363.55 529.84 359.37 527.58 354.97H527.57Z" fill="white"/>
<path d="M108.589 351.44H121.509C119.699 353.38 120.229 355.22 120.939 357.21C122.789 362.4 124.509 367.63 126.159 372.89C126.829 375.04 127.589 377.06 130.509 378.87C125.829 379.96 122.219 379.7 118.639 379.28C118.459 377.28 120.919 377.69 120.599 376.25C120.179 374.37 119.659 372.46 118.819 370.74C118.219 369.51 109.049 369.83 108.259 370.94C106.249 373.77 106.749 376.26 110.049 378.77C107.099 380.12 104.339 379.79 100.879 378.89C104.099 376.74 104.769 373.69 105.709 370.79C107.089 366.54 108.459 362.29 109.859 358.05C110.579 355.88 111.729 353.73 108.599 351.43L108.589 351.44ZM109.469 367.95C112.319 368.1 114.919 368.28 117.779 367.85C116.739 363.35 115.419 359.33 113.439 354.65C112.089 359.55 110.179 363.48 109.469 367.95Z" fill="white"/>
</g>
<defs>
<clipPath id="clip0_1534_1995">
<rect width="624.79" height="380.3" fill="white"/>
</clipPath>
</defs>
</svg>
