<svg width="1747" height="1068" viewBox="0 0 1747 1068" fill="none" xmlns="https://www.w3.org/2000/svg">
<g clip-path="url(#clip0_311_44)">
<path d="M241.77 402.75C222.24 352.08 172.89 318.29 117.74 331.09C64.7498 343.39 31.4598 401.34 51.4198 452.86C60.7598 476.96 79.8898 494.45 103.16 505.01C124.35 514.63 147.47 518.76 168.63 528.19C184.51 535.26 205.62 549.22 204.21 568.45C203.11 583.36 184.84 594.94 170.63 601.36C133.14 618.3 83.6698 611.04 52.1698 583C39.8198 572.01 21.0298 570.83 8.85981 583C-2.33019 594.19 -3.55019 615.27 8.85981 626.31C44.1498 657.71 91.4498 674.77 138.85 670.85C185.69 666.98 238.84 644.84 258.57 599.03C281.81 545.06 241.92 493.62 193.61 472.67C173.4 463.9 149.45 459.23 130.67 450.56C114.6 443.13 104 432.98 107.14 414.84C109.72 399.89 125.89 389.59 141.11 389.4C158.41 389.19 176.13 401.96 182.71 419.03C188.66 434.45 203.3 445.11 220.38 440.42C235.12 436.37 247.75 418.26 241.77 402.75Z" fill="white"/>
<path d="M267.86 439.68C251.62 490.78 268.09 559.52 320.8 582.37C338.81 590.18 357.39 593.69 376.92 589.69C391.04 586.8 404.9 578.56 414.67 568.01C430.76 550.62 439.71 527.59 443.78 504.52C445.55 494.5 446.85 484.33 447.45 474.17C447.73 469.45 447.85 464.73 447.73 460.01C447.6 455.06 446.38 449.6 446.94 444.68C445.55 449.83 444.15 454.98 442.76 460.14L442.86 460C434.05 465.06 425.23 470.11 416.42 475.17H416.45C411.3 473.78 406.15 472.38 400.99 470.99C394.82 468.03 388.25 459.44 387.29 453.4C387.36 453.84 387.58 454.27 387.67 454.72C388.01 456.39 388.43 458.05 388.77 459.72C390.21 466.89 391.38 474.11 392.57 481.32C398.42 516.81 403.61 552.41 408.84 587.99C411.18 603.89 432.12 614.04 446.51 609.38C463.89 603.76 470.4 588.75 467.9 571.71C462.44 534.57 457.07 497.4 450.85 460.38C447.23 438.82 444.63 416.25 416.41 413.92C405.34 413 395.79 420.59 389.97 429.09C382.65 439.77 386.78 455.51 386.49 467.52C386.37 472.47 386.04 477.42 385.55 482.34C385.4 483.85 385.21 485.35 385.05 486.85C384.66 490.51 386.48 478.02 385.27 484.94C384.55 489.09 383.83 493.22 382.86 497.32C381.94 501.23 380.87 505.11 379.61 508.93C378.96 510.88 378.22 512.8 377.52 514.73C375.9 519.22 378.69 511.89 378.82 511.7C378.03 512.92 377.49 514.58 376.82 515.88C374.94 519.55 372.49 522.76 370.41 526.29C374.86 518.76 372.56 523.52 370.32 525.82C369.63 526.53 368.85 527.18 368.16 527.9C364.44 531.83 374.3 524 369.68 526.84C367.96 527.9 366.24 528.92 364.49 529.94C360.7 532.14 367.12 527.46 367.56 528.71C367.6 528.81 362.58 530.26 362.93 530.15C359.38 531.3 361.79 531.89 364.19 530.21C363.61 530.62 360.05 530.4 359.69 530.39C359.81 530.39 355.5 530.47 355.3 530.18C359.53 530.83 360.49 530.95 358.17 530.54C357.15 530.36 356.14 530.15 355.14 529.91C352.61 529.32 350.19 528.43 347.7 527.7C342.57 526.19 354.13 530.85 347.38 527.58C344.87 526.37 342.54 524.92 340.12 523.55C335 520.64 340.1 524.1 340.8 524.32C339.99 524.07 338.07 521.94 337.63 521.52C335.74 519.73 334.16 517.15 332.14 515.57C332.84 516.12 335.98 521.36 333.5 517.08C332.87 516 332.14 514.97 331.51 513.9C330.89 512.85 330.3 511.78 329.74 510.7C329.15 509.57 327.32 504.63 329.03 509.57C330.78 514.63 328.07 506.78 327.64 505.46C326.88 503.1 326.21 500.7 325.61 498.29C325.1 496.23 324.65 494.16 324.22 492.08C324.07 491.37 323.94 490.66 323.79 489.95C323.62 489.03 323.45 488.1 323.28 487.18C323.64 490.35 323.71 490.82 323.48 488.59C323.3 484.79 322.95 481.04 323.03 477.23C323.06 475.67 323.13 474.11 323.23 472.55C323.33 471.07 323.46 469.59 323.63 468.12C323.45 469.45 323.27 470.78 323.09 472.1C324.86 467.01 325.26 461.23 326.92 456.02C331.77 440.75 321.22 421.92 305.53 418.35C288.82 414.54 273.05 423.39 267.86 439.74V439.68Z" fill="white"/>
<path d="M929.54 837.37C907.67 794.38 857.06 774.35 813.33 795.18C806.2 798.58 799.73 802.78 793.78 807.53C792.25 797.46 790.62 787.41 788.83 777.4C781.24 734.87 778.48 733.68 776.51 713.56C775.05 698.7 775.89 692.45 773.11 659.96C772 647.05 770.75 637.64 763.41 630.14C757.78 624.4 748.43 620.59 739.24 622.36C729.82 624.18 724.37 631.12 722.14 633.97C720.86 635.6 715.96 642.15 714.37 652.74C706.66 704.15 729.6 792.61 729.6 792.61C736.54 819.39 744.45 858.68 746.43 909.19V909.21C746.44 909.3 746.46 909.4 746.47 909.5C745.75 919.41 750.01 929.43 761.59 935.66C794.52 953.36 832.36 970.28 870.61 960.81C924.75 947.41 955.14 887.67 929.55 837.36L929.54 837.37ZM842.01 901.95C830.18 900.64 820.17 896.9 810.34 892.14C814.85 874.63 824.66 858.93 838.51 851.01C844.42 847.63 841.9 848.14 848.53 847.25C844.12 847.84 848.12 847.07 850.4 847.22C851.61 847.28 851.95 847.24 851.6 847.12L853.73 847.59C862.95 850.4 871.59 857.53 875.91 866.57C886.38 888.45 860.94 904.04 842 901.95H842.01Z" fill="white"/>
<path d="M670.52 478.42C662.83 457.18 652 431.17 635.32 414.84C612.46 390.03 578.24 372.63 544.09 378.8C507.53 385.41 481.38 421.11 475.26 456.14C468.08 497.21 483.42 538.88 521.62 559.03C554.85 576.55 593.88 573.59 623.14 553.13C623.71 566.26 622.82 579.26 619.74 591.13C608.29 635.27 538.85 651.72 491.06 647C432.21 641.19 395 622.88 395 622.88C384.22 617.58 368.98 608.93 354.96 614.77C343.64 619.49 334.79 632.96 336.04 644.71C337.04 654.11 344.91 666.42 390.55 683.12C442.67 702.2 476.93 714.74 524.02 708.37C575.62 701.39 667.53 672.15 680.68 598.66C687.63 559.84 683.9 515.43 670.51 478.41L670.52 478.42ZM593.63 498.58C577.61 516.25 545.1 510.78 537.03 491.64C529.84 474.6 537.65 449.87 550.52 441.15C562.11 433.3 579.33 445.24 589.93 455.97C599.34 470.34 605.5 485.49 593.63 498.58Z" fill="white"/>
<path d="M876.65 448.2C863.97 402.92 822.84 369.96 774.74 379.07C741.33 385.4 713 413.81 699.9 444.07C682.7 483.8 684.7 532.43 718.02 563.56C749.51 592.99 799.38 602.24 835.82 576.11C876.17 547.18 889.01 494.89 876.66 448.2C872.56 432.71 854.62 421.75 838.99 426.81C821.91 432.34 814.71 447.52 817.6 464.48C824.4 504.34 831.2 544.21 838 584.07C840.7 599.9 861.02 610.2 875.67 605.46C892.75 599.93 899.95 584.75 897.06 567.79C890.26 527.93 883.46 488.06 876.66 448.2C856.97 453.63 837.28 459.06 817.6 464.48C818.54 468.02 819.17 471.6 819.98 475.17C818.53 468.78 820.13 477.85 820.21 480.09C820.32 483.48 820.12 486.83 820.02 490.21C819.86 495.93 820.1 490.62 820.3 489.42C819.9 491.81 819.48 494.17 818.93 496.53C818.21 499.61 817.22 502.57 816.3 505.58C815.83 507.1 815.09 511.16 816.85 504.69C816.5 505.99 815.48 507.65 814.9 508.78C813.56 511.42 812.07 513.99 810.44 516.46C809.77 517.47 808.81 519.33 807.94 520.03C810.44 518.01 810.87 516.65 807.95 519.61C806.02 521.56 803.76 523.41 801.93 525.43C799.27 528.36 806.73 522.58 803.26 524.41C802.08 525.03 801.01 525.93 799.86 526.62C798.42 527.49 796.92 528.22 795.45 529.04C791.27 531.38 797.02 527.57 797.26 528.3C797.44 528.84 785.26 531.18 790.17 530.45C794.35 529.83 789.09 530.42 788.04 530.45C786.39 530.49 784.7 530.25 783.07 530.37C778.68 530.69 788.1 531.62 783.81 530.58C782.2 530.19 780.56 529.93 778.95 529.52C777.34 529.1 775.75 528.63 774.17 528.1C773.21 527.78 768.49 525.59 772.03 527.36C775.61 529.16 770.92 526.65 770.09 526.2C768.27 525.21 766.55 524.08 764.77 523.02C760.08 520.24 764.04 522.62 765.02 523.45C763.78 522.4 762.54 521.36 761.35 520.25C759.79 518.78 754.35 512.14 758.16 517.49C756.3 514.87 754.76 512.15 753.13 509.39C750.39 504.74 752.97 509.16 753.35 510.31C752.62 508.1 751.83 505.96 751.23 503.7C750.83 502.21 750.55 500.71 750.21 499.2C749.39 495.56 748.65 498.03 750.34 500.49C749.19 498.81 750 493.3 750.06 491.25C750.1 489.7 750.24 488.16 750.33 486.61C750.51 483.56 749.19 483.59 750.12 487.82C749.56 485.24 751.74 480.08 752.46 477.58C752.89 476.08 753.36 474.6 753.86 473.12C754.19 472.14 755.74 467.34 754.38 471.33C753.04 475.27 754.7 470.66 755.17 469.68C755.84 468.29 756.53 466.93 757.26 465.57C758.7 462.9 760.27 460.3 761.96 457.77C762.54 456.9 765.28 452.84 762.83 456.34C760.24 460.05 763.96 455.07 764.61 454.34C767.43 451.19 770.55 448.4 773.71 445.61C779.13 440.83 768.14 449.12 774.22 445.32C776.66 443.79 779.14 442.37 781.6 440.89C786.27 438.06 780.51 440.98 780.06 441.31C781.44 440.28 784.83 439.6 786.46 439.16C787.08 438.99 790.9 437.93 791.04 438.13C790.67 437.56 784.71 438.48 791.46 438.45C792.42 438.45 797.83 438.82 793.9 438.37C789.93 437.92 795.99 438.95 796.81 439.18C797.25 439.3 800.5 440 801.02 440.56C797.48 438.99 796.73 438.71 798.78 439.71C799.78 440.2 800.76 440.73 801.72 441.29C803.01 442.04 804.21 442.97 805.5 443.7C802.3 441.87 802.67 441.31 805.5 443.9C806.63 444.94 807.72 446.02 808.78 447.15C811.11 449.63 811.44 450.52 809.23 447.28C811.52 450.64 813.55 454.04 815.45 457.63C816.3 459.23 816.78 462.53 815.31 457.18C815.98 459.63 816.93 462.02 817.61 464.48C821.93 479.9 839.5 490.98 855.28 485.87C871.02 480.78 881.3 464.72 876.67 448.2H876.65Z" fill="white"/>
<path d="M895.11 406.05C901.71 466.2 912.59 525.7 928.57 584.07C932.8 599.52 950.52 610.55 966.24 605.46C983.04 600.02 990.9 584.67 987.63 567.79C980.13 529.02 975.1 491.32 975.86 449.9C975.88 448.8 976.14 444.76 975.74 448.08C976.01 445.9 976.53 443.69 977.08 441.56C977.28 440.8 980 433.56 978.43 436.96C977.01 440.04 979.61 435.06 979.9 434.55C980.18 434.07 983.19 429.36 981.3 432.04C979.29 434.88 984.14 429.01 984.19 428.96C985.47 427.68 986.81 426.46 988.2 425.3C985.85 427.27 986.38 426.55 988.6 425.33C989.25 424.98 995.71 421.56 992.18 423.17C989.12 424.56 994.46 422.5 995.1 422.31C995.65 422.15 1001.36 420.73 998.03 421.39C994.31 422.13 1001.66 421.21 1002.51 421.21C1004.42 421.21 1006.33 421.3 1008.23 421.47C1005 421.17 1006.06 421.05 1008.56 421.81C1009.22 422.01 1016.35 424.29 1013.04 423C1010 421.82 1017.09 425.27 1017.07 425.26C1030.98 433.23 1051.2 428.98 1058.97 414.27C1066.67 399.7 1062.83 380.87 1047.98 372.37C998.86 344.23 936.38 368.17 918.94 422.07C910.84 447.09 914.69 476.41 916.99 502.12C919.44 529.6 923.34 556.99 928.58 584.07C948.27 578.64 967.96 573.21 987.64 567.79C980.18 540.52 973.71 513 968.37 485.24C962.94 457.04 959.27 432.51 956.37 406.05C954.63 390.18 943.53 374.63 925.74 375.42C910.65 376.1 893.24 388.99 895.11 406.05Z" fill="white"/>
<path d="M1162.65 598.79C1158.26 690.23 1164.44 781.58 1179.91 871.78C1184.51 898.61 1223.52 900.36 1235.89 879.1C1243.5 866.02 1246.93 852.34 1249.55 837.6C1251.56 826.31 1253.12 814.95 1260.71 805.92C1270.63 794.13 1285.78 788.01 1297.17 797.19C1330.98 824.46 1272.3 879.29 1254.65 844.74C1247.13 830.01 1226.45 825.74 1212.75 833.75C1197.79 842.5 1194.21 860.87 1201.76 875.65C1225.17 921.47 1285.92 927.63 1325.31 899.33C1363.89 871.61 1381.08 818.82 1357.44 775.76C1334.54 734.05 1283.43 720.27 1242.2 743.17C1224.03 753.26 1208.66 769.89 1200 788.75C1191.4 807.48 1193.19 830.64 1183 848.17C1201.66 850.61 1220.32 853.05 1238.98 855.49C1224.44 770.75 1219.78 684.64 1223.9 598.78C1225.79 559.38 1164.54 559.48 1162.65 598.78V598.79Z" fill="white"/>
<path d="M1126.61 771.02C1107.06 747.71 1074.9 732.18 1044.63 731.79C998.47 731.2 958.79 764.91 944.75 807.57C930.24 851.63 950.75 904.37 992.74 925.3C1037.48 947.6 1096.29 933.3 1122.13 889.19C1133.17 870.35 1137.07 847.86 1137.07 826.27C1137.07 818.96 1136.52 811.67 1135.82 804.39C1135.59 801.96 1135.27 799.52 1135.14 797.08C1134.82 790.97 1136.12 796.45 1134.2 801.05C1131.57 805.55 1128.95 810.06 1126.32 814.56C1124.35 816.08 1122.38 817.6 1120.41 819.12C1115.26 820.51 1110.11 821.91 1104.95 823.3C1094.54 823.63 1084.21 817.15 1079.34 808.82C1079.57 809.21 1079.76 809.61 1079.96 810.01C1079.61 809.31 1076.38 800.14 1077.75 804.97C1078.01 805.88 1078.35 806.78 1078.62 807.69C1080.53 813.93 1081.95 820.34 1083.38 826.7C1090.22 857.18 1095.73 887.97 1101.3 918.71C1104.16 934.51 1124.21 944.88 1138.97 940.1C1155.92 934.61 1163.43 919.36 1160.36 902.43C1153.82 866.31 1148.34 829.31 1138.41 793.9C1135.35 783.01 1131 772.32 1120.69 766.3C1099.77 754.09 1074.59 770.14 1073.87 793.47C1073.73 797.99 1074.41 802.49 1074.82 806.99C1075.6 815.54 1076.05 824.13 1075.68 832.72C1075.58 834.95 1075.36 837.17 1075.23 839.39C1075.01 843.11 1073.67 839.96 1075.62 837.07C1075.22 837.67 1075.06 840.49 1074.97 840.97C1074.04 845.95 1072.06 850.58 1070.96 855.47C1070.09 859.31 1073.82 850.45 1071.64 853.75C1070.9 854.87 1070.41 856.2 1069.75 857.37C1068.88 858.92 1067.41 862.73 1065.85 863.45C1065.97 863.4 1070.88 857.97 1066.63 862.13C1065.86 862.88 1065.14 863.69 1064.37 864.44C1063.32 865.46 1062.17 866.38 1061.12 867.38C1058.36 870.01 1067.04 863.8 1061 867.31C1058.65 868.67 1056.39 870.14 1053.96 871.37C1053 871.86 1048.36 873.55 1052.21 872.26C1055.92 871.01 1051.97 872.25 1051.38 872.41C1048.23 873.31 1045.16 874.16 1041.95 874.86C1037.37 875.86 1042.19 875.56 1042.74 874.76C1042.41 875.25 1038.39 874.98 1037.74 874.99C1036.05 875 1034.38 874.86 1032.69 874.84C1030.71 874.82 1027.77 873.42 1033.21 874.97C1030.36 874.16 1027.21 873.21 1024.34 872.64C1020.98 871.97 1025.23 873.16 1025.84 873.45C1024.38 872.76 1022.92 872.07 1021.5 871.29C1020.11 870.53 1018.79 869.58 1017.39 868.84C1012.47 866.24 1019.4 871.01 1016.96 868.71C1014.98 866.84 1012.91 865.11 1011.04 863.12C1010.56 862.61 1007.93 860.01 1008 859.65C1008.03 859.5 1012.12 865.88 1008.71 860.34C1007.32 858.09 1005.92 855.89 1004.69 853.53C1004.55 853.26 1003.4 850.53 1003.21 850.52C1004.66 854.11 1004.99 854.84 1004.19 852.72C1003.93 852.04 1003.68 851.35 1003.47 850.65C1002.55 847.88 1002.06 845.07 1001.28 842.28C1000.38 839.05 1001.64 844.88 1001.58 845.14C1001.82 844.21 1001.31 842 1001.27 840.89C1001.17 838.41 1001.22 835.93 1001.39 833.45C1001.53 831.5 1003.13 828.77 1001.44 832.24C999.62 835.97 1001.72 831.51 1002.07 830.02C1002.64 827.59 1003.36 825.19 1004.17 822.83C1006.66 815.61 1002.25 826.02 1004.79 821.21C1006.14 818.65 1007.45 816.12 1008.99 813.66C1009.76 812.44 1010.59 811.26 1011.39 810.06C1014.08 806.06 1011.28 811.16 1010.56 811.1C1011.2 811.15 1016.63 804.57 1017.24 804C1018.03 803.26 1018.85 802.55 1019.65 801.81C1024.88 796.96 1014.3 805.14 1020.31 801.29C1022.75 799.73 1025.16 798.15 1027.73 796.8C1028.46 796.42 1031.37 795.34 1031.63 794.89C1030.94 796.06 1026.11 796.85 1030.39 795.57C1033.57 794.61 1036.75 793.9 1039.96 793.06C1043.98 792.01 1034.55 793.17 1038.86 793.23C1040.78 793.26 1042.71 793.01 1044.64 793.04C1045.77 793.05 1046.89 793.11 1048.01 793.18C1054.64 793.61 1048.11 792.3 1047.47 793.01C1048.13 792.27 1055.61 794.99 1056.62 795.31C1057.59 795.62 1058.54 795.99 1059.51 796.3C1065.73 798.28 1055.47 794.07 1058.58 795.88C1061.01 797.29 1063.63 798.39 1066.06 799.82C1068.07 801 1070.03 802.27 1071.95 803.59C1078.58 808.19 1068.07 800.07 1072.58 803.98C1076.33 807.23 1080.1 810.51 1083.3 814.32C1093.64 826.64 1116.09 825.78 1126.61 814.32C1138.64 801.21 1137.64 784.15 1126.61 771.01V771.02Z" fill="white"/>
<path d="M1379.9 756.05C1385.21 793.02 1378.27 829.47 1396.63 864.02C1414.08 896.85 1448.69 913.39 1485.02 906.84C1515.89 901.28 1544.56 878.55 1558.32 850.58C1576.27 814.12 1575.66 773.75 1572.87 734.18C1552.82 736.89 1532.77 739.61 1512.71 742.32C1514.45 749.19 1515.73 756.2 1516.87 763.19C1517.33 765.99 1517.74 768.79 1518.14 771.6C1516.96 763.18 1518.45 774.84 1518.66 776.85C1519.54 785.4 1520.12 793.99 1520.41 802.58C1521.77 843.09 1517.72 882.27 1499.16 919.03C1480.42 956.14 1449.93 985.67 1412.29 999.58C1359.51 1019.07 1299.94 1002.7 1248.54 986.36C1238.99 983.32 1212.66 970.26 1175.94 965.33C1154.85 962.5 1136.48 962.85 1121.32 973.5C1117.94 975.87 1105.08 984.91 1105.94 995.93C1107.06 1010.29 1130.69 1018.23 1137.28 1020.44C1157.11 1027.09 1173.73 1024.79 1182.2 1024.13C1217.92 1021.37 1238.31 1037.99 1271.92 1050.4C1286.21 1055.68 1359.42 1081.08 1430.86 1057.83C1500.04 1035.31 1536.09 977.65 1545.32 962.2C1570.73 919.65 1581.08 869.32 1581.84 820.19C1582.33 788.95 1579.49 756.41 1571.79 726.05C1563.48 693.28 1509.17 699.15 1511.63 734.19C1514.08 769.01 1521.38 838.78 1472.6 847.05C1459.14 849.33 1450.33 838.62 1446.18 823.76C1438.73 797.05 1442.92 767.26 1438.97 739.78C1436.61 723.39 1415.8 714.4 1401.3 718.39C1383.7 723.23 1377.55 739.63 1379.91 756.06L1379.9 756.05Z" fill="white"/>
<path d="M1308.25 215.95C1354.64 202.51 1405.16 207.22 1447.58 228.21C1455.48 232.12 1464.84 225.68 1462.58 216.68C1459.3 203.6 1458.2 189.02 1464.02 176.45C1468.68 166.39 1476.42 159.7 1486.31 154.6C1506.82 144.01 1533.4 143.77 1555.92 150.12C1565.51 152.83 1574.65 156.84 1582.89 162.48C1583.74 163.06 1584.58 163.66 1585.42 164.27C1586.08 164.76 1586.74 165.25 1587.39 165.75C1585.48 164.31 1587.43 165.79 1588.16 166.38C1591.55 169.13 1594.82 172.05 1597.91 175.13C1613.1 190.26 1624.78 210.56 1617.69 232.73C1615.89 238.37 1612.6 244.03 1609.12 248.23C1606.99 250.8 1604.64 253.2 1602.16 255.44C1599.87 257.51 1598.26 258.78 1596.56 260C1592.65 262.79 1588.52 265.27 1584.24 267.44C1582.67 268.24 1581.04 268.91 1579.46 269.69C1579.06 269.89 1581.99 268.68 1579.97 269.47C1579.62 269.61 1579.26 269.75 1578.91 269.88C1573.75 271.83 1570.22 276.77 1571.78 282.44C1573.14 287.39 1579.16 291.53 1584.34 289.57C1603.89 282.19 1622.62 268.47 1632.51 249.75C1640.01 235.56 1642.19 219.25 1638.44 203.63C1635.21 190.17 1627.73 178.15 1618.85 167.7C1586.43 129.54 1529.4 114.2 1482.69 133.89C1468.56 139.85 1455.76 149.48 1448.06 162.97C1437.76 180.99 1437.97 202.49 1442.89 222.12C1447.89 218.28 1452.89 214.43 1457.89 210.59C1409.81 186.8 1354.47 181.3 1302.82 196.27C1290.22 199.92 1295.58 219.64 1308.25 215.97V215.95Z" fill="white"/>
<path d="M1391.37 442.86C1391.93 451.13 1380.15 459.36 1369.47 459.42C1358.24 459.48 1346.17 450.52 1346.98 442.2C1347.74 434.4 1359.62 429.05 1368.95 429.05C1378.58 429.05 1390.82 434.75 1391.37 442.86Z" fill="white"/>
<path d="M1315.38 208.82C1319.45 182.96 1315.38 155.85 1297.64 135.6C1280.08 115.55 1252.07 108.5 1226.3 109.66C1200.45 110.82 1175.27 119.04 1154.31 134.34C1130.54 151.69 1109.97 176.66 1106.84 206.85C1103.68 237.42 1124.47 262.77 1149.71 277.03C1161.17 283.51 1171.48 265.87 1160.02 259.39C1143.76 250.2 1127.76 235.22 1127 214.61C1126.12 190.91 1142.65 170.06 1159.92 155.65C1176.34 141.95 1197.07 133.17 1217.81 130.75C1237.49 128.46 1259.22 130.33 1275.46 142.66C1286.27 150.87 1292.68 163.1 1295.31 176.22C1296.42 181.76 1296.69 187.44 1296.53 193.09C1296.46 195.48 1296.31 197.87 1296.07 200.24C1295.99 201.08 1295.89 201.92 1295.78 202.76C1296.13 199.85 1295.76 202.78 1295.67 203.39C1294.81 208.83 1297.06 214.38 1302.8 215.95C1307.65 217.28 1314.5 214.3 1315.36 208.82H1315.38Z" fill="white"/>
<path d="M1178.24 208.73C1178.46 195.99 1186.81 183.71 1198.66 179.03C1203.99 176.93 1209.79 176.3 1215.51 176.1C1221.42 175.9 1227.42 176.15 1233.09 177.83C1249.19 182.61 1260.5 199.96 1258.39 216.62C1258.19 218.21 1233.92 225.32 1231.19 226.43C1222.19 230.11 1213.25 235.94 1204.03 238.81C1188.87 243.52 1178.03 221.22 1178.24 208.72V208.73Z" fill="white"/>
<path d="M1519.3 195.55C1536.1 192.84 1556.16 201.54 1563.51 218.48C1564.34 220.39 1570.65 235.63 1562.4 249.42C1561.17 251.48 1555.81 260.44 1546.1 262.41C1540.45 263.56 1537.07 261.57 1515.28 249.33C1496.46 238.76 1493.24 237.02 1491.4 232.01C1487.77 222.18 1493.98 212.1 1494.99 210.46C1502.51 198.25 1516.48 196 1519.3 195.54V195.55Z" fill="white"/>
<path d="M1297.29 427.27C1306.51 427.27 1313.98 419.798 1313.98 410.58C1313.98 401.362 1306.51 393.89 1297.29 393.89C1288.07 393.89 1280.6 401.362 1280.6 410.58C1280.6 419.798 1288.07 427.27 1297.29 427.27Z" fill="white"/>
<path d="M1441.03 427.88C1450.25 427.88 1457.72 420.408 1457.72 411.19C1457.72 401.972 1450.25 394.5 1441.03 394.5C1431.81 394.5 1424.34 401.972 1424.34 411.19C1424.34 420.408 1431.81 427.88 1441.03 427.88Z" fill="white"/>
<path d="M1530.1 480.23C1527.03 471.66 1521.48 463.87 1513.11 459.8C1504.97 455.83 1494.97 455.3 1487.12 460.38C1471.59 470.44 1468.62 492.59 1479.01 507.3C1489.47 522.11 1506.72 529.3 1524.53 526.66C1541.29 524.18 1555.41 512.65 1561.39 496.87C1568.37 478.47 1561.77 456.48 1546.69 444.15C1542.42 440.66 1536.42 439.98 1532.25 444.15C1528.65 447.75 1527.96 455.08 1532.25 458.59C1533.54 459.64 1534.78 460.74 1535.94 461.93C1536.35 462.36 1538.55 464.9 1537.51 463.57C1538.49 464.82 1539.36 466.2 1540.14 467.59C1540.45 468.14 1540.76 468.7 1541.04 469.27C1541.12 469.43 1542.27 472.19 1541.55 470.29C1542.55 472.91 1543.33 475.66 1543.7 478.44C1543.43 476.39 1543.64 478.46 1543.67 478.98C1543.72 479.76 1543.74 480.53 1543.74 481.31C1543.74 481.93 1543.72 482.55 1543.69 483.18C1543.68 483.44 1543.29 486.4 1543.66 484.18C1543.43 485.57 1543.13 486.94 1542.75 488.3C1542.53 489.06 1542.27 489.8 1542.03 490.55C1541.93 490.87 1541.28 492.33 1541.99 490.76C1541.41 492.05 1540.74 493.3 1540.01 494.51C1539.61 495.17 1539.17 495.8 1538.75 496.44C1537.59 498.2 1539.66 495.57 1538.1 497.23C1537.18 498.21 1536.28 499.19 1535.28 500.1C1534.73 500.6 1534.17 501.08 1533.6 501.54C1533.95 501.26 1535.13 500.54 1533.54 501.52C1532.42 502.22 1531.34 502.95 1530.18 503.58C1529.54 503.93 1528.88 504.24 1528.23 504.57C1526.32 505.56 1529.69 504.18 1527.46 504.88C1524.97 505.67 1522.54 506.39 1519.96 506.82C1522.17 506.45 1519.26 506.84 1518.44 506.88C1516.89 506.95 1515.36 506.87 1513.81 506.79C1513.17 506.76 1511.35 506.36 1513.63 506.8C1513.09 506.7 1512.54 506.61 1512 506.49C1510.65 506.2 1509.37 505.76 1508.05 505.38C1507.69 505.28 1506.36 504.69 1508.05 505.44C1507.49 505.19 1506.93 504.92 1506.38 504.64C1504.81 503.84 1503.32 502.91 1501.86 501.92C1500.36 500.9 1503.54 503.46 1501.18 501.42C1500.68 500.98 1500.17 500.56 1499.69 500.1C1498.59 499.08 1497.56 498 1496.6 496.85C1495.46 495.49 1497.68 498.74 1496.1 496.15C1495.76 495.59 1495.39 495.05 1495.05 494.48C1494.72 493.91 1494.43 493.34 1494.13 492.75C1493.14 490.84 1494.13 493.52 1493.72 491.59C1493.55 490.8 1493.29 490.04 1493.13 489.25C1492.8 487.6 1493.02 491.5 1493.1 488.59C1493.12 487.95 1493.14 487.27 1493.13 486.62C1493.11 483.76 1492.6 487.73 1493.13 486.61C1493.58 485.65 1493.66 484.32 1494 483.28C1494.17 482.77 1494.35 482.26 1494.55 481.76C1493.67 483.98 1494.67 481.68 1494.94 481.2C1495.28 480.58 1495.66 480 1496.05 479.4C1496.47 478.8 1496.36 478.93 1495.73 479.77C1496 479.44 1496.28 479.13 1496.58 478.83C1496.9 478.41 1498.41 477.2 1496.74 478.46C1497.43 477.94 1498.18 477.51 1498.94 477.12C1498.42 477.39 1497.25 477.51 1498.97 477.2C1499.39 477.08 1499.81 476.98 1500.23 476.91C1501 476.77 1500.73 476.81 1499.43 477.04C1499.83 477.1 1500.55 477.05 1500.98 477.03C1503.13 476.91 1499.47 476.46 1501.39 477.09C1502.16 477.34 1502.95 477.53 1503.72 477.79C1502.05 477.22 1503.49 477.72 1504.3 478.18C1504.8 478.46 1505.27 478.79 1505.75 479.09C1504 477.99 1506.11 479.4 1506.42 479.7C1506.86 480.12 1507.25 480.57 1507.69 480.99C1509.22 482.45 1507.36 480.15 1508.39 481.86C1508.8 482.55 1509.25 483.22 1509.63 483.93C1509.87 484.36 1510.09 484.8 1510.3 485.25C1509.93 484.34 1509.97 484.47 1510.4 485.63C1512.26 490.82 1517.36 494.3 1522.96 492.76C1527.98 491.38 1531.96 485.41 1530.09 480.2L1530.1 480.23Z" fill="white"/>
<path d="M1231.32 466.92C1232.41 463.88 1230.81 467.75 1231.64 466.1C1232 465.37 1232.39 464.66 1232.81 463.96C1233.14 463.42 1233.49 462.89 1233.87 462.38C1232.85 463.77 1233.78 462.52 1234.03 462.29C1234.57 461.77 1235.08 461.22 1235.63 460.7C1236.06 460.3 1237.63 459.35 1235.97 460.39C1236.46 460.08 1236.92 459.77 1237.42 459.48C1237.93 459.19 1240.11 458.46 1238 459.09C1238.64 458.9 1239.31 458.71 1239.94 458.49C1240.64 458.25 1242.32 458.28 1239.96 458.38C1240.98 458.34 1243.38 458.56 1241.12 458.15C1241.82 458.28 1242.5 458.45 1243.19 458.65C1244.59 459.04 1241.54 457.4 1243.55 458.84C1244.02 459.17 1244.52 459.42 1244.99 459.77C1243.17 458.4 1245.22 460.23 1245.45 460.44C1246.75 461.65 1245.72 460.76 1245.45 460.35C1245.85 460.93 1246.23 461.52 1246.59 462.13C1246.94 462.74 1247.24 463.36 1247.56 463.98C1247.38 463.64 1246.91 462.04 1247.48 463.81C1247.83 464.93 1248.13 466.05 1248.46 467.17C1248.67 467.88 1248.72 469.6 1248.52 466.91C1248.59 467.9 1248.63 468.88 1248.64 469.87C1248.67 471.78 1248.62 470.59 1248.71 470.05C1248.58 470.85 1248.39 471.63 1248.16 472.4C1248.04 472.82 1247.36 474.81 1248.03 473.15C1247.79 473.74 1247.47 474.34 1247.17 474.9C1246.86 475.48 1246.53 476.04 1246.18 476.6C1246.3 476.41 1244.47 479.05 1245.27 477.99C1246.07 476.93 1244.01 479.42 1244.16 479.25C1243.49 479.99 1242.78 480.69 1242.05 481.37C1238.57 484.6 1234.88 486.59 1230.14 487.67C1229.47 487.82 1228.78 487.92 1228.11 488.07C1230.17 487.6 1228.92 487.99 1228.35 488.02C1226.94 488.1 1225.56 488.2 1224.15 488.17C1223.02 488.15 1221.89 488.05 1220.76 487.95C1223.03 488.17 1221.1 488 1220.51 487.87C1219.67 487.68 1218.83 487.52 1217.99 487.31C1216.73 486.98 1215.51 486.55 1214.27 486.15C1212.46 485.58 1213.9 486.03 1214.29 486.2C1213.63 485.9 1212.97 485.59 1212.32 485.25C1211.15 484.65 1210.01 483.99 1208.91 483.27C1208.42 482.95 1207.94 482.61 1207.46 482.27C1209.2 483.5 1207.12 481.97 1206.77 481.65C1205.64 480.65 1204.67 479.55 1203.62 478.48C1202.33 477.15 1203.22 478.06 1203.51 478.43C1203.05 477.82 1202.62 477.18 1202.2 476.54C1201.43 475.35 1200.78 474.12 1200.13 472.87C1199.22 471.11 1199.85 472.26 1200.02 472.69C1199.68 471.81 1199.37 470.91 1199.1 470.01C1198.88 469.26 1198.68 468.5 1198.51 467.74C1198.44 467.42 1197.97 464.68 1198.12 465.87C1198.32 467.4 1198.03 464.37 1198.03 464.44C1197.98 463.51 1197.96 462.57 1197.98 461.64C1197.99 461.02 1198.04 460.4 1198.07 459.78C1198.19 456.85 1197.62 461.67 1198.16 458.79C1198.45 457.25 1198.79 455.73 1199.24 454.23C1200.06 451.53 1200.76 449.88 1203.09 446.41C1203.45 445.88 1203.81 445.34 1204.21 444.84C1203.06 446.31 1204.85 444.19 1205.1 443.91C1206.45 442.44 1207.92 441.11 1209.46 439.85C1213.73 436.35 1213.09 429.03 1209.46 425.41C1205.23 421.18 1199.3 421.91 1195.02 425.41C1181.2 436.72 1174.99 455.34 1178.7 472.72C1182.26 489.38 1195.88 502.53 1212.13 506.91C1228.52 511.33 1246.07 506.7 1257.91 494.44C1264.47 487.65 1269.21 478.54 1269.05 468.9C1268.91 460.55 1265.52 452.12 1259.88 445.99C1253.04 438.56 1242.04 436.01 1232.57 439.38C1222.25 443.05 1215.25 451.35 1211.62 461.48C1209.82 466.52 1213.65 472.88 1218.75 474.04C1224.49 475.35 1229.38 472.3 1231.31 466.91L1231.32 466.92Z" fill="white"/>
<path d="M1337.88 505.8C1344.32 505.79 1351.22 505.73 1357.31 503.38C1363.76 500.88 1369.88 496.83 1373.01 490.42C1374.23 487.93 1374.8 485.3 1374.04 482.55C1373.39 480.18 1371.56 477.61 1369.35 476.45C1366.98 475.2 1364.11 474.57 1361.48 475.42C1359.06 476.2 1356.54 477.74 1355.38 480.11C1354.92 481.05 1354.37 481.92 1353.73 482.76C1354.26 482.07 1354.79 481.38 1355.33 480.69C1354.5 481.71 1353.58 482.61 1352.55 483.42C1353.24 482.89 1353.93 482.36 1354.62 481.82C1353.24 482.86 1351.76 483.71 1350.18 484.4C1350.99 484.06 1351.81 483.71 1352.62 483.37C1350.38 484.31 1348.04 484.87 1345.64 485.23C1346.55 485.11 1347.45 484.99 1348.36 484.87C1344.89 485.34 1341.39 485.37 1337.89 485.37C1332.55 485.38 1327.43 490.06 1327.68 495.58C1327.93 501.1 1332.17 505.8 1337.89 505.79L1337.88 505.8Z" fill="white"/>
<path d="M1357.27 491.83C1363.69 499.64 1373.68 504.29 1383.66 504.95C1397.69 505.87 1410.97 497.57 1417.99 485.75C1420.72 481.15 1419.18 474.34 1414.33 471.78C1409.41 469.18 1403.27 470.54 1400.36 475.44C1400.01 476.03 1399.66 476.6 1399.28 477.17C1399.05 477.52 1397.77 478.83 1398.89 477.76C1400.07 476.63 1398.42 478.25 1398.19 478.51C1397.82 478.92 1397.44 479.31 1397.04 479.7C1396.57 480.16 1396.07 480.59 1395.58 481.03C1394.21 482.26 1396.89 480.16 1395.85 480.84C1394.85 481.49 1393.89 482.16 1392.84 482.73C1392.35 483 1391.55 483.25 1391.11 483.59C1391.77 483.07 1393.01 482.85 1391.47 483.4C1390.36 483.8 1389.23 484.12 1388.08 484.37C1387.68 484.46 1385.8 484.65 1387.54 484.51C1389.38 484.37 1387.02 484.53 1386.65 484.54C1385.64 484.59 1383.88 484.15 1382.97 484.46C1383.66 484.23 1385.12 484.83 1383.33 484.49C1382.8 484.39 1382.26 484.27 1381.74 484.13C1381.13 483.97 1380.53 483.79 1379.93 483.59C1378.76 483.19 1378.44 482.49 1380.13 483.74C1378.61 482.61 1376.62 481.88 1375.02 480.78C1373.67 479.86 1376.66 482.16 1375.8 481.39C1375.53 481.15 1375.25 480.94 1374.98 480.7C1374.46 480.25 1373.96 479.79 1373.48 479.3C1372.86 478.69 1372.28 478.04 1371.72 477.37C1368.31 473.23 1360.76 473.58 1357.28 477.37C1353.24 481.77 1353.65 487.39 1357.28 491.81L1357.27 491.83Z" fill="white"/>
<path d="M1408.81 208.71C1425.77 211.38 1434.25 212.71 1441.54 216.11C1452.89 221.41 1458.2 225.92 1462.98 223.77C1466.89 222.01 1470.4 215.56 1468.94 195.3C1474.53 197.32 1482.88 199.69 1493.19 200.13C1501.1 200.47 1519.82 201.18 1536.59 188.66C1541.77 184.79 1553.78 175.84 1556.74 159.6C1560.65 138.14 1545.42 122.34 1544.11 121.03C1532.3 109.17 1517.68 107.93 1513.88 107.72C1531.9 90.0202 1537.45 65.9402 1528.51 49.1902C1520.83 34.8102 1504.77 30.1302 1499.32 28.5402C1495.1 27.3102 1474.26 21.7802 1454.72 34.3802C1442.61 42.1902 1437.07 53.0502 1434.98 57.8402C1416.61 23.8402 1385.46 5.95015 1360.98 12.0702C1351.81 14.3602 1340.3 20.8602 1332.51 32.4802C1320.3 50.7002 1324.86 70.2502 1325.67 73.4802C1308.45 61.7702 1286.18 60.3601 1267.76 69.8401C1247.15 80.4501 1237.79 101.39 1237.11 119.04C1236.82 126.69 1236.34 138.89 1244.14 148.37C1254.39 160.84 1278.59 168.14 1285.74 177.31C1287.9 180.08 1289.12 183.18 1289.12 183.18C1290.2 185.93 1290.46 188.18 1290.57 189.01C1290.77 190.57 1292.57 204.24 1298.28 208.63C1302.75 212.07 1309.38 209.77 1316.04 207.87C1320.6 206.57 1332.91 206.27 1357.55 205.65C1384.39 204.98 1404.49 208.03 1408.8 208.71H1408.81Z" fill="white"/>
<path d="M1290.61 124.1C1291.38 132.48 1295.2 139.86 1300.79 146.07C1306.41 152.31 1313.62 156.93 1320.63 161.43C1322.88 162.88 1326.37 161.97 1327.62 159.6C1328.96 157.07 1328.19 154.16 1325.79 152.61C1319.53 148.59 1313.79 144.97 1308.74 139.63C1306.48 137.24 1305.09 135.41 1303.43 132.3C1303.22 131.91 1303.02 131.52 1302.83 131.12C1302.78 131.01 1302.27 129.87 1302.44 130.28C1302.59 130.64 1302.11 129.4 1302.12 129.42C1302 129.09 1301.89 128.76 1301.78 128.42C1301.51 127.58 1301.29 126.74 1301.11 125.88C1301.04 125.54 1300.97 125.19 1300.91 124.85C1300.62 123.2 1300.99 125.79 1300.83 124.11C1300.59 121.46 1298.66 118.87 1295.72 119C1293.16 119.11 1290.35 121.26 1290.61 124.11V124.1Z" fill="white"/>
<path d="M1383.01 81.2701C1384.76 105.76 1383.72 130.42 1379.57 154.63C1378.47 161.06 1388.31 163.82 1389.42 157.35C1393.73 132.22 1395.04 106.71 1393.22 81.2801C1392.76 74.7601 1382.54 74.7101 1383.01 81.2801V81.2701Z" fill="white"/>
<path d="M1457.15 97.22C1452.04 120.61 1440.55 144.35 1419.9 157.71C1414.4 161.27 1419.52 170.11 1425.05 166.53C1447.92 151.72 1461.3 125.99 1466.99 99.94C1468.39 93.53 1458.55 90.8 1457.14 97.22H1457.15Z" fill="white"/>
<path d="M1325.37 191.71C1371.98 185.22 1420.13 192.32 1462.92 211.87C1468.86 214.58 1474.05 205.78 1468.07 203.05C1422.54 182.24 1372.23 174.95 1322.65 181.86C1316.17 182.76 1318.93 192.61 1325.37 191.71Z" fill="white"/>
<path d="M1292.83 170.1C1279.49 164.93 1263.98 159.07 1255.3 147C1247.4 136.01 1245.59 121.26 1248.97 108.71C1252.61 95.2202 1261.64 83.8102 1274.42 77.9002C1289.57 70.9002 1306.83 73.2602 1320.52 82.2802C1331.53 89.5302 1341.77 71.8502 1330.83 64.6402C1301.4 45.2502 1261.51 52.0902 1240.39 80.2202C1222.36 104.24 1222.31 139.76 1241.94 162.86C1253.56 176.52 1271.12 183.47 1287.39 189.78C1292.53 191.78 1298.6 187.58 1299.95 182.65C1301.54 176.87 1297.98 172.09 1292.82 170.09L1292.83 170.1Z" fill="white"/>
<path d="M1337.81 71.6901C1335.28 58.9601 1335.17 44.1501 1344.12 33.7601C1350.91 25.8701 1361.42 21.1401 1371.74 20.5001C1396.52 18.9601 1416.82 38.5301 1425.13 60.5701C1427.07 65.7301 1432.03 69.2601 1437.69 67.7001C1442.64 66.3401 1446.78 60.3201 1444.82 55.1401C1435.55 30.5401 1416.45 8.33007 1390.1 1.80007C1365.78 -4.21993 1337.64 5.14007 1324.05 26.7401C1314.58 41.7801 1314.77 60.2901 1318.11 77.1301C1319.18 82.5401 1325.63 85.6501 1330.67 84.2601C1336.32 82.7101 1338.88 77.1301 1337.8 71.7001L1337.81 71.6901Z" fill="white"/>
<path d="M1445.41 62.16C1453.02 40.92 1475.62 28.99 1497.04 35.92C1507.15 39.19 1516.18 46.53 1520.68 56.24C1525.06 65.69 1523.84 76.5 1519.39 84.9C1516.01 91.28 1512.79 95.61 1506.67 100.49C1502.35 103.93 1503.08 111.34 1506.67 114.93C1510.93 119.19 1516.79 118.38 1521.11 114.93C1539.83 100 1549.41 72.83 1540.19 50.21C1527.67 19.47 1490.32 5.47001 1460.26 18.47C1443.66 25.65 1431.74 39.89 1425.71 56.72C1423.85 61.91 1427.81 67.9 1432.84 69.28C1438.5 70.84 1443.54 67.36 1445.4 62.15L1445.41 62.16Z" fill="white"/>
<path d="M1513.89 117.93C1514.66 117.96 1515.42 118.04 1516.18 118.08C1518.35 118.2 1515.37 117.87 1516.04 118.03C1516.84 118.23 1517.7 118.29 1518.51 118.45C1520.49 118.84 1522.45 119.33 1524.38 119.94C1527.51 120.92 1527.66 121.01 1530.01 122.24C1539.72 127.34 1546.17 136.87 1545.96 148.66C1545.76 159.5 1540.89 170.39 1532.97 177.8C1525.59 184.7 1516.79 187.38 1506.84 189.02C1506.43 189.09 1503.19 189.56 1504.83 189.33C1506.37 189.12 1504.97 189.31 1504.58 189.36C1503.62 189.47 1502.66 189.59 1501.69 189.67C1497.44 190.05 1493.16 190.04 1488.91 189.67C1483.02 189.14 1477.2 187.49 1471.67 185.43C1466.5 183.51 1460.48 187.58 1459.11 192.56C1457.54 198.28 1461.05 203.19 1466.24 205.12C1491.49 214.51 1524.31 211.73 1545.43 193.99C1557.69 183.69 1564.73 167.84 1566.19 152.1C1567.82 134.67 1559.74 117.99 1545.63 107.88C1536.59 101.4 1524.99 97.89 1513.9 97.48C1500.75 97 1500.77 117.43 1513.9 117.91L1513.89 117.93Z" fill="white"/>
<path d="M1458.73 195.29C1458.01 204.71 1456.54 213.97 1454.4 223.17C1459.4 221.14 1464.4 219.1 1469.4 217.07C1438.39 200.9 1403.53 194.98 1368.82 194.75C1350.54 194.63 1332.29 196.01 1314.11 197.84C1312.66 197.99 1301.46 198.37 1301.16 199.06C1304.14 201.4 1304.94 201.57 1303.55 199.55H1303.57C1303.46 197.88 1302.43 195.88 1302.06 194.21C1301.01 189.52 1300.57 184.75 1300.32 179.95C1299.65 166.87 1279.22 166.79 1279.89 179.95C1280.53 192.38 1281.38 213.64 1295.56 218.47C1299.76 219.9 1303.86 219.34 1308.16 218.88C1313.45 218.32 1318.74 217.79 1324.04 217.31C1333.64 216.45 1343.26 215.77 1352.89 215.42C1389.14 214.11 1426.47 217.69 1459.09 234.7C1464.69 237.62 1472.53 235.3 1474.09 228.6C1476.64 217.65 1478.29 206.5 1479.15 195.29C1479.57 189.78 1474.15 185.08 1468.94 185.08C1463.06 185.08 1459.15 189.77 1458.73 195.29Z" fill="white"/>
<path d="M1572.66 391.62C1582.62 414.91 1587.98 442.24 1583.29 467.42C1578.45 493.45 1562.23 514.69 1540.96 529.94C1523.72 542.3 1504.59 550.36 1484.69 557.29C1470.01 562.4 1455.12 566.86 1439.97 570.32C1390.31 581.65 1338.04 582.19 1288.89 568C1267.9 561.94 1248.1 553 1228.86 542.74C1213.38 534.48 1197.5 524.74 1184.37 514.13C1167 500.08 1151.51 483.6 1142.62 462.96C1132.4 439.24 1134.33 411.88 1145.44 388.05C1147.77 383.05 1146.84 377.04 1141.78 374.08C1137.36 371.49 1130.15 372.72 1127.81 377.74C1116.02 403.03 1111.53 431.26 1119.44 458.44C1125.87 480.56 1139.44 499.98 1155.76 515.98C1184.6 544.27 1222.49 565.15 1259.95 579.74C1314.59 601.03 1374.63 603.66 1431.89 592.84C1449.92 589.43 1467.65 584.63 1485.03 578.75C1504.92 572.02 1524.63 564.63 1542.52 553.45C1567.27 537.98 1588.87 516.14 1598.86 488.27C1608.74 460.71 1606.42 429.37 1597.96 401.77C1595.82 394.8 1593.16 388.03 1590.3 381.33C1588.13 376.26 1580.66 375.13 1576.33 377.67C1571.08 380.74 1570.49 386.55 1572.67 391.64L1572.66 391.62Z" fill="white"/>
<path d="M1147.37 380.41C1142.67 343.97 1147.96 306.55 1163.54 273.36C1165.88 268.37 1164.94 262.35 1159.88 259.39C1155.45 256.8 1148.26 258.04 1145.91 263.05C1128.77 299.59 1121.78 340.29 1126.95 380.41C1127.65 385.88 1131.14 390.62 1137.16 390.62C1142.13 390.62 1148.08 385.92 1147.37 380.41Z" fill="white"/>
<path d="M1591.33 389.18C1600.71 352.05 1600.73 313.11 1591.43 275.97C1588.24 263.23 1568.53 268.63 1571.73 281.4C1580.15 315 1580.12 350.16 1571.63 383.75C1568.41 396.5 1588.1 401.94 1591.33 389.18Z" fill="white"/>
<path d="M1655.32 594.92C1650.32 597.8 1656.66 595.06 1653.49 595.69C1653.15 595.77 1652.82 595.85 1652.48 595.93C1654.44 595.59 1654.16 595.49 1651.64 595.61C1655.6 597.18 1646.29 593.4 1649.78 594.88C1648.36 594.28 1646.94 592.9 1646.1 591.82C1647.58 593.72 1643.95 588.12 1644.24 588.62C1642.47 585.58 1643.95 589.33 1643.08 585.65C1641.81 580.3 1641.16 577.02 1641.92 572.26C1641.52 574.78 1643.12 567.87 1642.95 568.52C1643.03 568.22 1644.37 565 1643.3 567.29C1645.13 563.37 1644.84 563.91 1647.73 561.14C1645.02 563.74 1653.97 557.96 1650.23 559.44C1652.61 558.5 1655.2 557.85 1657.73 557.46C1654.16 558 1657.51 557.57 1658.18 557.61C1659.82 557.7 1661.48 557.61 1663.13 557.71C1666.6 557.91 1658.84 556.38 1664.6 557.95C1666.52 558.48 1668.43 558.95 1670.34 559.55C1671 559.76 1673.71 561.2 1670.94 559.78C1672.25 560.45 1673.55 561.13 1674.81 561.89C1678.52 564.11 1677.68 563.46 1680.37 565.87C1685.98 570.88 1688.57 574.1 1692.07 579.54C1693.88 582.35 1695.55 585.25 1697.12 588.2C1698.01 589.88 1698.85 591.59 1699.69 593.3C1699.6 593.11 1701.24 596.68 1700.54 595.05C1701.96 598.38 1703.09 601.88 1704.07 605.35C1704.62 607.28 1705.12 609.23 1705.53 611.2C1705.65 611.76 1706.43 617.53 1706.22 615.22C1706.51 618.34 1706.51 621.49 1706.34 624.62C1706.21 626.94 1705.9 628.18 1704.73 631.79C1703.25 636.36 1701.01 639.49 1697.2 643.25C1696.22 644.22 1695.2 645.12 1694.18 646.04C1689.45 650.33 1695.63 645.17 1692.57 647.3C1689.99 649.09 1687.31 650.74 1684.54 652.23C1677.99 655.77 1676.16 656.38 1668.67 658.62C1656.28 662.34 1642.75 664.24 1632.15 662.26C1624 660.73 1619.23 659.18 1612.96 655.16C1612.22 654.68 1608.98 652.18 1611.66 654.38C1610.42 653.36 1609.24 652.26 1608.1 651.13C1606.95 650 1605.87 648.81 1604.81 647.6C1607.02 650.13 1603.81 646.19 1603.38 645.53C1602.68 644.45 1602.02 643.35 1601.4 642.23C1601.24 641.94 1598.75 636.49 1600.2 640.17C1599.04 637.23 1598.25 634.19 1597.59 631.11C1598.36 634.7 1597.62 631.91 1597.6 630.97C1597.56 629.11 1597.56 627.27 1597.58 625.41C1597.65 619.81 1596.92 627.6 1597.77 624.41C1597.99 623.59 1600.04 617.66 1598.44 621.28C1602.87 611.23 1601.38 599.42 1591.14 593.43C1582.49 588.37 1567.74 590.62 1563.29 600.73C1545.58 640.94 1569.58 683.54 1609.16 698.2C1646.29 711.95 1696.85 699.91 1725.26 672.74C1759.2 640.28 1748.67 587.87 1723.43 553.47C1711.19 536.79 1694.45 522.1 1673.47 518.3C1653.05 514.6 1630.22 519.04 1616.07 535.33C1598.59 555.44 1596.92 584.84 1608.61 608.22C1620.82 632.65 1651.7 644.02 1675.86 630.07C1698.55 616.98 1678.07 581.78 1655.31 594.91L1655.32 594.92Z" fill="white"/>
<path d="M557.76 883.73C581.44 897.4 609.88 888.42 625.36 867.08C639.17 848.04 641.1 820.9 632.06 799.53C622.58 777.12 601.55 764.35 577.67 763.04C555.53 761.82 534.17 772.3 518.84 787.75C488.11 818.73 466.98 876.36 493.86 915.76C518.92 952.49 571.23 967.05 613.49 960.34C663.56 952.38 699.09 900.7 677.83 852.43C673.1 841.69 657.42 839.2 648.12 844.64C637.05 851.11 635.58 863.58 640.33 874.35C638.26 869.64 641.82 882.71 641.08 876.79C641.41 879.42 641.27 882.05 641.22 884.69C641.14 888.92 641.03 885.8 641.24 884.84C640.89 886.48 640.53 888.1 640.07 889.72C639.6 891.34 639.09 892.95 638.46 894.51C639.86 891.03 637.64 895.88 637.18 896.71C635.86 899.09 634.41 901.47 632.72 903.61C635.01 900.71 632.09 904.08 631.48 904.73C630.54 905.73 629.56 906.69 628.56 907.63C627.87 908.27 624.41 910.98 627.41 908.79C626.32 909.59 625.16 910.35 624.01 911.06C622.72 911.85 621.39 912.54 620.07 913.27C616.94 915.01 619.4 913.89 616.23 914.97C612.34 916.28 608.42 917.33 604.39 918.08C601.46 918.63 602.39 918.46 597.91 918.64C589.06 919.01 583.88 918.56 576.35 916.99C569.63 915.58 563.05 913.62 556.62 911.22C552.72 909.77 561.03 913.41 554.55 910.39C553.19 909.76 551.84 909.11 550.5 908.43C547.16 906.72 544.03 904.74 540.86 902.76C535.08 899.15 542.09 904 539.07 901.49C537.94 900.55 536.86 899.58 535.8 898.56C534.48 897.3 533.24 895.98 532.01 894.63C531.64 894.23 529.71 891.39 531.39 893.87C529.93 891.7 527.79 888.01 527.2 886.51C528 888.55 525.64 880.96 525.96 881.98C524.92 878.59 525.48 881.7 525.27 877.93C524.55 865.12 528.48 851.8 534.56 840.13C536.21 836.97 537.97 833.87 539.87 830.85C540.93 829.17 542.04 827.53 543.16 825.9C543.24 825.79 545.6 822.71 544.06 824.63C548.5 819.08 553.85 814.17 557.91 811.65C559.58 810.62 561.28 809.66 563.03 808.78C562.2 809.19 559.49 809.88 563.67 808.53C565.02 808.1 566.35 807.66 567.73 807.31C567.42 807.39 574.13 806.13 571.09 806.53C568.05 806.92 574.85 806.43 574.53 806.43C575.94 806.42 577.33 806.5 578.74 806.57C575.12 806.38 578.29 806.46 579.17 806.68C581.19 807.19 583.18 807.66 585.13 808.4C581.1 806.86 590.79 813.06 587.8 810.22C590.53 812.82 591.3 813.94 592.34 816.33C591.32 813.99 593.77 821.1 593.52 820.35C593.69 821.11 593.86 821.88 594.03 822.64C593.92 821.13 593.93 821.16 594.05 822.7C594.24 824.67 594.12 826.62 594.2 828.59C594.36 832.62 594.84 827.88 593.88 831.97C592.91 836.06 592.52 837.79 591.52 839.54C590.79 840.82 590.08 842.19 589.2 843.38C591.11 840.77 587.29 845.25 586.72 845.7C588.92 843.94 585.98 846.06 585.61 846.21C588.62 844.95 583.07 847.04 582.32 847.17C586.5 846.43 579.58 847.96 582.06 847.18C583.45 847.5 582.96 847.37 580.58 846.81C582.3 847.73 582 847.54 579.7 846.25C555.45 832.25 533.55 869.77 557.78 883.75L557.76 883.73Z" fill="white"/>
</g>
<defs>
<clipPath id="clip0_311_44">
<rect width="1746.78" height="1067.47" fill="white"/>
</clipPath>
</defs>
</svg>
