<svg width="1452" height="1026" viewBox="0 0 1452 1026" fill="none" xmlns="https://www.w3.org/2000/svg">
<g clip-path="url(#clip0_1534_648)">
<path d="M943.938 447.562C947.254 451.482 947.471 455.165 947.398 460.125C944.833 478.638 924.752 494.245 911 505C910.121 505.693 910.121 505.693 909.225 506.4C877.053 531.726 841.902 552.466 806.37 572.653C802.805 574.679 799.246 576.714 795.688 578.75C793.792 579.833 791.896 580.916 790 582C792.292 581.752 794.583 581.501 796.875 581.25C798.047 581.122 798.047 581.122 799.242 580.992C804.714 580.388 810.178 579.733 815.641 579.047C920.946 565.914 920.946 565.914 953 587C957.319 590.851 960.51 594.387 961.309 600.277C961.813 610.682 957.58 618.369 950.812 626.062C949.219 627.719 947.615 629.364 946 631C945.234 631.838 944.469 632.676 943.68 633.539C930.62 647.417 914.155 658.061 898 668C897.211 668.485 896.423 668.971 895.61 669.471C860.377 691.065 823.219 709.553 785.895 727.23C778.63 730.676 771.443 734.263 764.262 737.879C757.754 741.147 751.203 744.314 744.625 747.437C736.702 751.2 728.835 755.057 721 759C712.218 763.419 703.384 767.709 694.504 771.926C687.042 775.478 679.65 779.158 672.269 782.875C664.762 786.644 657.193 790.271 649.605 793.875C643.031 797.007 636.504 800.224 630 803.5C622.582 807.235 615.127 810.875 607.625 814.437C599.702 818.2 591.835 822.057 584 826C575.218 830.419 566.384 834.709 557.504 838.926C550.962 842.04 544.471 845.241 538 848.5C530.582 852.235 523.127 855.875 515.625 859.437C507.702 863.2 499.835 867.057 492 871C483.219 875.419 474.387 879.71 465.506 883.923C458.937 887.049 452.429 890.28 445.938 893.562C410.928 911.23 410.928 911.23 397 910C393.419 908.804 391.567 907.049 389.75 903.687C390.169 899.181 392.745 896.848 396 894C414.167 880.392 434.993 870.239 455.25 860.187C456.819 859.405 456.819 859.405 458.419 858.607C471.702 851.988 485.042 845.559 498.599 839.524C516.094 831.733 533.221 823.187 550.401 814.731C557.29 811.342 564.197 807.995 571.125 804.687C580.853 800.04 590.555 795.34 600.25 790.625C611.035 785.381 621.824 780.146 632.625 774.937C642.839 770.011 653.047 765.073 663.25 760.125C663.937 759.792 664.623 759.459 665.331 759.116C670.221 756.744 675.11 754.372 680 752C685.583 749.291 691.166 746.583 696.75 743.875C697.437 743.542 698.123 743.209 698.831 742.866C709.567 737.659 720.31 732.468 731.057 727.284C741.515 722.237 751.966 717.178 762.411 712.104C769.412 708.703 776.42 705.316 783.441 701.957C801.233 693.433 818.703 684.496 836 675C837.142 674.377 838.284 673.755 839.46 673.113C892.521 647.12 892.521 647.12 934 607C934.368 605.676 934.71 604.343 935 603C933.863 602.866 932.726 602.732 931.555 602.594C926.301 601.937 921.099 601.024 915.887 600.105C907.029 598.586 898.254 597.844 889.27 597.797C888.369 597.79 887.469 597.783 886.541 597.775C883.631 597.758 880.722 597.752 877.812 597.75C876.811 597.749 875.81 597.748 874.779 597.748C857.335 597.766 840.304 598.658 823 601C821.12 601.249 821.12 601.249 819.201 601.504C778.587 607.034 738.606 616.621 699.557 629.02C698.721 629.284 697.885 629.548 697.023 629.82C696.311 630.05 695.599 630.279 694.865 630.516C693 631 693 631 690 631C689.776 631.78 689.551 632.56 689.32 633.363C676.898 667.58 651.914 702.785 629 731C628.287 731.884 628.287 731.884 627.56 732.786C621.434 740.327 614.838 747.351 608 754.25C607.269 754.99 606.539 755.73 605.786 756.492C605.094 757.18 604.401 757.869 603.688 758.578C603.073 759.191 602.458 759.803 601.824 760.434C598.358 763.409 595.472 764.306 590.938 764.375C590.08 764.403 589.223 764.432 588.34 764.461C586 764 586 764 584.203 762.168C582.807 759.651 582.616 757.93 583.176 755.105C585.858 748.252 591.538 742.533 596.188 736.937C607.116 723.718 616.659 709.366 626 695C626.488 694.252 626.976 693.503 627.479 692.732C633.687 683.181 639.555 673.464 645.188 663.562C645.753 662.573 646.318 661.583 646.9 660.564C647.422 659.636 647.943 658.709 648.48 657.754C648.943 656.932 649.406 656.11 649.884 655.264C650.92 653.161 651.539 651.289 652 649C651.506 649.254 651.013 649.509 650.504 649.772C632.942 658.788 615.034 666.983 597 675C596.043 675.426 596.043 675.426 595.066 675.86C532.512 703.656 532.512 703.656 511.375 696.687C506.333 694.166 506.333 694.166 505 691C503.677 684.465 505.715 679.626 508.711 673.871C514.618 666.462 522.787 661.575 531.125 657.312C532.098 656.811 533.071 656.31 534.073 655.793C556.448 644.55 580.333 636.044 604 628C605.101 627.624 606.203 627.248 607.337 626.861C622.026 621.891 636.851 617.557 651.812 613.5C652.62 613.28 653.428 613.06 654.261 612.834C656.575 612.206 658.89 611.586 661.207 610.969C661.891 610.784 662.576 610.599 663.281 610.408C667.517 609.292 671.663 608.542 676 608C676.268 607.126 676.535 606.253 676.811 605.353C677.961 602.109 679.329 599.343 681.02 596.351C681.623 595.275 682.227 594.199 682.849 593.091C683.497 591.947 684.145 590.803 684.812 589.625C686.177 587.197 687.538 584.766 688.898 582.336C689.243 581.722 689.587 581.108 689.942 580.476C695.411 570.715 700.699 560.853 706 551C706.403 550.252 706.807 549.505 707.222 548.735C711.683 540.5 711.683 540.5 715.863 532.121C716.324 531.163 716.324 531.163 716.793 530.186C717.628 528.438 718.445 526.682 719.262 524.926C721.164 521.723 722.873 520.002 726 518C729.812 517.75 729.812 517.75 733 518C737.554 527.107 732.796 539.903 729.828 548.859C724.41 564.411 717.194 579.209 710 594C713.043 593.338 715.662 592.324 718.473 590.988C719.358 590.567 720.244 590.147 721.156 589.713C722.115 589.251 723.074 588.789 724.062 588.312C725.072 587.827 726.081 587.341 727.121 586.841C746.523 577.44 765.507 567.327 784.203 556.595C787.002 554.999 789.813 553.426 792.629 551.859C861.054 515.634 861.054 515.634 913 460C894.047 451.877 868.513 457.277 849 461C847.988 461.193 846.976 461.386 845.933 461.585C801.603 470.364 758.654 486.801 717 504C715.497 504.611 715.497 504.611 713.963 505.235C689.199 515.336 665.887 528.568 642.946 542.243C639.914 544.051 636.875 545.848 633.836 547.644C613.045 559.979 592.542 572.754 573 587C572.214 587.57 571.427 588.14 570.617 588.727C561.191 595.566 551.885 602.466 543 610C541.942 610.873 540.883 611.745 539.824 612.617C520.219 628.904 499.841 647.273 493.871 673.004C493 675 493 675 491.086 676.254C487.577 677.509 484.629 677.659 481.129 676.242C477.494 674.323 475.425 672.835 474 669C472.17 654.677 478.723 642.486 487.031 631.254C494.584 621.826 502.751 612.407 512.043 604.648C514.245 602.794 516.331 600.836 518.438 598.875C524.876 593.074 531.779 587.904 538.711 582.715C540.937 581.047 543.154 579.367 545.371 577.687C571.615 557.94 599.609 540.463 628 524C629.361 523.209 629.361 523.209 630.749 522.403C710.356 476.307 803.326 432.594 943.938 447.562Z" fill="white"/>
<path d="M452.062 2.93742C455.495 6.59167 455.584 9.72938 455.527 14.6171C450.921 44.1624 416.669 76.2832 398.09 98.1598C393.659 103.385 389.321 108.684 385 114C380.201 119.903 375.365 125.767 370.437 131.562C366.638 136.032 362.928 140.557 359.281 145.152C351.598 154.742 343.726 164.181 335.762 173.538C332.457 177.432 329.265 181.403 326.093 185.406C323.149 189.054 320.105 192.614 317.066 196.184C314.322 199.414 311.632 202.677 309 206C305.909 209.901 302.726 213.711 299.5 217.5C295.679 221.99 291.946 226.533 288.281 231.152C280.598 240.742 272.726 250.181 264.762 259.538C261.457 263.432 258.265 267.403 255.093 271.406C252.149 275.054 249.105 278.614 246.066 282.184C243.322 285.414 240.632 288.677 238 292C234.451 296.479 230.77 300.833 227.066 305.184C224.322 308.414 221.632 311.677 219 315C215.909 318.901 212.726 322.711 209.5 326.5C205.679 330.99 201.946 335.533 198.281 340.152C190.598 349.742 182.726 359.181 174.762 368.538C171.457 372.432 168.265 376.403 165.093 380.406C162.149 384.054 159.105 387.614 156.066 391.184C153.322 394.414 150.632 397.677 148 401C144.909 404.901 141.726 408.711 138.5 412.5C134.679 416.99 130.946 421.533 127.281 426.152C119.598 435.742 111.726 445.181 103.762 454.538C100.456 458.433 97.2626 462.407 94.0896 466.41C91.1688 470.03 88.1538 473.566 85.1408 477.109C80.6898 482.349 76.3363 487.665 71.9997 493C67.22 498.88 62.405 504.724 57.4997 510.5C53.4551 515.263 49.4669 520.066 45.5193 524.91C42.3126 528.843 39.0957 532.767 35.8747 536.687C35.3007 537.388 34.7267 538.089 34.1352 538.811C32.4329 540.882 30.7174 542.942 28.9997 545C28.4135 545.718 27.8273 546.436 27.2234 547.176C21.9646 553.459 15.96 557.732 7.77707 559.473C5.19308 559.599 3.44679 559.325 1.33957 557.793C-1.38225 554.151 -0.422176 549.323 -0.000276864 545C2.99898 534.003 13.0128 524.673 20.3239 516.137C23.4406 512.496 26.4684 508.785 29.4958 505.07C37.3287 495.465 45.2042 485.899 53.2375 476.461C56.5469 472.563 59.7433 468.586 62.9177 464.578C65.3306 461.59 67.8177 458.669 70.3122 455.75C74.1172 451.294 77.7877 446.758 81.3747 442.125C85.8496 436.352 90.558 430.822 95.3698 425.329C99.0298 421.144 102.549 416.877 105.988 412.508C108.371 409.538 110.838 406.644 113.312 403.75C117.117 399.294 120.788 394.758 124.375 390.125C128.85 384.352 133.558 378.822 138.37 373.329C142.027 369.148 145.542 364.884 148.98 360.519C151.87 356.914 154.869 353.405 157.863 349.886C160.78 346.454 163.657 342.994 166.5 339.5C172.042 332.696 177.733 326.02 183.416 319.334C188.135 313.779 192.84 308.219 197.437 302.562C201.395 297.699 205.465 292.941 209.558 288.192C212.589 284.667 215.57 281.11 218.5 277.5C221.932 273.272 225.445 269.125 229 265C233.319 259.987 237.551 254.915 241.722 249.777C244.282 246.656 246.886 243.575 249.5 240.5C252.873 236.531 256.211 232.54 259.5 228.5C263.248 223.895 267.07 219.36 270.914 214.836C274.563 210.535 278.136 206.176 281.695 201.801C284.22 198.732 286.795 195.71 289.375 192.687C293.176 188.229 296.846 183.691 300.437 179.062C304.693 173.581 309.123 168.283 313.662 163.035C318.211 157.772 322.621 152.406 327 147C328.054 145.704 329.109 144.409 330.164 143.113C336.143 135.769 342.103 128.411 348 121C346.871 122.128 345.744 123.257 344.617 124.387C343.461 125.54 342.298 126.688 341.133 127.832C337.242 131.669 333.543 135.593 329.98 139.734C327.534 142.533 325.019 145.267 322.5 148C317.318 153.634 312.253 159.35 307.293 165.18C301.465 172.021 295.543 178.742 289.445 185.344C285.274 189.875 281.253 194.528 277.258 199.215C276.234 200.414 275.211 201.613 274.187 202.812C273.67 203.419 273.153 204.025 272.62 204.649C269.415 208.39 266.148 212.061 262.812 215.687C258.786 220.073 255.019 224.617 251.281 229.25C248.933 232.081 246.491 234.794 244 237.5C239.944 241.911 236.115 246.452 232.351 251.113C229.755 254.3 227.102 257.433 224.437 260.562C221.25 264.308 218.112 268.078 215.062 271.937C203.14 286.931 190.13 300.928 176.625 314.5C175.983 315.146 175.341 315.793 174.68 316.458C156.732 334.346 130.718 358.367 104.125 359.437C94.7732 359.149 86.4196 356.506 79.6208 349.934C72.3894 341.308 72.2733 331.173 72.782 320.415C73.3919 313.651 75.7003 307.346 77.9997 301C78.2732 300.224 78.5466 299.448 78.8283 298.648C87.4315 274.387 98.6447 251.071 110 228C110.335 227.319 110.67 226.638 111.015 225.936C120.3 207.079 129.717 188.337 140 170C141.094 168.033 142.188 166.065 143.281 164.098C149.075 153.692 154.945 143.331 160.871 133C178.456 103.255 178.456 103.255 193 71.9999C192.67 71.6699 192.34 71.3399 192 70.9999C184.857 78.654 178.316 86.6588 172 94.9999C171.226 96.0213 171.226 96.0213 170.436 97.0634C161.105 109.464 153.106 122.445 145.342 135.866C128.023 165.781 128.023 165.781 120 168C115.686 168 112.966 167.263 109.625 164.625C106.43 161.431 106.078 159.896 105.687 155.437C105.818 146.638 111.186 138.456 115.5 131.062C116.023 130.158 116.546 129.253 117.086 128.321C128.745 108.315 141.549 89.1031 156 70.9999C156.41 70.4854 156.82 69.9709 157.242 69.4408C170.453 52.9977 189.072 30.2152 211 25.9999C219.004 25.1534 224.709 25.46 231.293 30.2968C234.34 33.3375 235.302 36.114 235.375 40.3749C235.032 53.4052 229.084 64.8111 223 75.9999C222.68 76.5927 222.36 77.1855 222.03 77.7963C218.373 84.5251 214.397 90.9819 210.187 97.3749C197.264 117.047 185.612 137.62 174.222 158.207C172.205 161.852 170.157 165.475 168.058 169.074C156.155 189.57 145.63 210.825 135 232C134.623 232.751 134.245 233.502 133.857 234.276C106.851 282.137 106.851 282.137 98.7497 333.937C99.699 336.828 99.699 336.828 101 338C114.829 337.259 126.122 325.905 136 317C136.823 316.263 137.647 315.526 138.496 314.767C146.641 307.402 154.44 299.714 162.192 291.938C164.323 289.802 166.459 287.671 168.595 285.541C169.977 284.159 171.357 282.777 172.738 281.394C173.364 280.77 173.99 280.146 174.636 279.503C178.401 275.717 181.973 271.811 185.464 267.771C187.171 265.803 188.927 263.891 190.718 262C191.341 261.34 191.964 260.68 192.605 260C193.868 258.667 195.131 257.333 196.394 256C200.152 252.016 203.811 247.966 207.401 243.83C209.516 241.409 211.693 239.049 213.875 236.687C217.183 233.065 220.36 229.383 223.437 225.562C226.659 221.568 230.007 217.755 233.5 214C237.71 209.47 241.676 204.797 245.554 199.98C248.47 196.427 251.478 192.963 254.5 189.5C259.015 184.321 263.432 179.082 267.758 173.742C270.761 170.068 273.835 166.457 276.91 162.842C279.86 159.367 282.757 155.855 285.625 152.312C289.248 147.861 293.019 143.576 296.883 139.332C298.78 137.242 300.647 135.13 302.5 133C306.611 128.283 310.807 123.644 315 119C316.5 117.334 318 115.667 319.5 114C320.246 113.171 320.992 112.342 321.761 111.488C323.224 109.862 324.685 108.235 326.144 106.605C331.815 100.281 337.552 94.0222 343.331 87.7978C344.464 86.5769 345.596 85.3548 346.727 84.1318C354.671 75.5439 362.756 67.134 371.102 58.9345C375.069 55.0174 378.797 50.9821 382.436 46.7592C384.359 44.5954 386.428 42.6952 388.625 40.8124C392.792 37.1474 396.728 33.3203 400.625 29.3749C409.072 20.862 418.176 13.3399 427.488 5.79289C428.092 5.30329 428.695 4.81368 429.317 4.30925C436.008 -0.89789 444.752 -1.68711 452.062 2.93742Z" fill="white"/>
<path d="M394.504 477.844C396.051 479.055 397.582 480.287 399.09 481.547C402.125 483.855 403.991 484 407.813 483.875C411.93 483.845 414.535 484.637 418 487C421.702 491.302 423.272 495.374 423 501C421.41 506.303 419.636 509.031 415 512C411.367 513.188 407.678 513.975 403.938 514.75C402.945 514.97 401.951 515.191 400.928 515.418C396.82 516.309 393.225 517 389 517C387.543 515.242 387.543 515.242 386.188 512.875C381.915 506.047 376.852 501.355 369 499C360.256 497.628 353.245 500.037 346 505C340.373 511.296 338.694 516.599 338.938 524.937C339.48 531.843 340.899 538.451 342.547 545.168C342.808 546.243 343.07 547.318 343.339 548.426C346.556 561.496 350.157 574.463 353.771 587.428C354.507 590.072 355.239 592.717 355.971 595.362C357.481 600.82 358.994 606.277 360.513 611.732C360.777 612.68 361.041 613.628 361.313 614.605C361.833 616.416 362.405 618.212 363 620C370.388 610.7 377.296 601.394 383.196 591.074C384.672 588.56 386.19 586.277 388 584C394.582 585.482 401.039 587.233 407.438 589.375C409.138 589.943 409.138 589.943 410.872 590.523C415.14 592.537 417.921 595.234 420.375 599.25C421.311 603.367 421.212 606.943 420 611C417.888 614.312 415.548 617.226 412 619C410.921 618.878 410.921 618.878 409.821 618.754C406.386 618.51 404.242 618.761 401 620C396.772 623.921 393.762 629.051 390.552 633.8C388.082 637.302 385.316 640.523 382.5 643.75C382.008 644.321 381.516 644.892 381.008 645.481C378.972 647.825 376.995 650.004 374.61 652C372.679 653.964 372.679 653.964 373.047 657.015C373.279 658.083 373.511 659.15 373.75 660.25C373.972 661.327 374.194 662.405 374.422 663.515C374.613 664.335 374.804 665.155 375 666C375.97 666.082 376.939 666.165 377.938 666.25C385.213 667.312 391.241 670.348 396 676C397.731 679.461 397.346 683.209 397 687C395.729 690.742 394.385 692.625 391.563 695.375C380.63 700.362 367.097 695.469 356.411 691.711C352.702 690.129 350.375 688.984 348.497 685.351C347.517 681.786 346.995 678.69 347 675C342.154 676.594 337.369 678.322 332.586 680.097C318.812 684.904 302.887 682.464 289.895 676.597C273.609 667.98 262.823 653.063 257.39 635.669C252.381 616.613 256.043 597.383 265.016 580.262C268.09 575.21 271.774 571.108 276 567C276.614 566.366 277.228 565.731 277.86 565.078C286.515 556.719 300.219 550.176 312.313 549.933C313.643 549.966 313.643 549.966 315 550C314.735 549.117 314.469 548.234 314.196 547.324C309.026 529.757 305.917 513.439 314.625 496.312C322.314 483.335 333.559 474.421 348 470C364.03 466.071 380.969 467.877 394.504 477.844ZM296 588C287.34 597.504 284.586 607.73 284.731 620.371C285.478 630.425 290.344 638.592 297 646C302.897 650.976 309.989 653.553 317.766 653.312C324.352 652.391 329.929 649.91 335.182 645.908C335.898 645.365 336.615 644.821 337.353 644.261C337.896 643.845 338.44 643.429 339 643C337.243 636.474 335.483 629.95 333.721 623.426C333.124 621.214 332.527 619.002 331.932 616.79C328.437 603.814 324.874 590.869 321 578C311.385 577.859 302.983 581.355 296 588Z" fill="white"/>
<path d="M734.999 2.99987C739.428 6.51734 741.564 10.5763 742.999 15.9999C744.653 31.5854 741.036 46.0403 736.999 60.9999C736.533 62.7471 736.533 62.7471 736.057 64.5297C726.799 98.7964 715.008 132.394 700.999 165C700.491 166.188 699.983 167.377 699.459 168.601C686.814 197.975 672.622 226.67 655.999 254C654.868 255.882 653.738 257.765 652.609 259.648C652.108 260.483 651.608 261.317 651.092 262.177C650.551 263.079 650.551 263.079 649.999 264C651.757 263.675 651.757 263.675 653.55 263.344C677.193 259.097 677.193 259.097 686.999 264C690.063 267.156 690.456 269.601 690.499 273.937C690.53 274.957 690.561 275.977 690.593 277.027C689.779 281.104 688.283 282.502 684.999 285C681.687 285.933 681.687 285.933 677.999 286.437C670.296 287.707 663.933 290.38 656.999 294C655.63 294.699 654.26 295.398 652.89 296.098C651.509 296.813 650.128 297.53 648.749 298.25C648.093 298.591 647.436 298.932 646.759 299.284C643.27 300.997 643.27 300.997 640.999 304C647.321 314.481 655.608 323.936 664.41 332.414C666.888 334.887 669.145 337.544 671.421 340.203C672.949 342.01 672.949 342.01 674.644 343.496C676.623 345.692 676.871 348.062 677.124 350.937C676.907 354.523 675.359 356.398 672.999 359C669.564 361.366 667.681 362.012 663.499 361.937C657.988 360.461 654.618 357.85 651.003 353.551C646.687 348.558 642.066 343.881 637.401 339.217C635.931 337.744 634.468 336.263 633.005 334.781C632.055 333.828 631.103 332.874 630.152 331.922C629.306 331.072 628.46 330.222 627.589 329.347C624.851 326.866 622.116 324.969 618.999 323C612.377 329.957 606.59 337.352 600.894 345.07C600.422 345.71 599.949 346.35 599.463 347.009C598.439 348.402 597.42 349.8 596.407 351.202C595.885 351.916 595.362 352.631 594.824 353.367C594.354 354.015 593.884 354.664 593.401 355.331C591.498 357.597 589.807 358.887 586.843 359.301C586.07 359.305 585.296 359.308 584.499 359.312C583.726 359.329 582.953 359.346 582.156 359.363C579.999 359 579.999 359 578.245 357.82C575.521 353.84 576.527 348.587 576.999 344C580.643 327.02 591.583 311.397 600.375 296.722C607.671 284.494 614.725 272.12 621.559 259.628C622.577 257.771 623.598 255.916 624.623 254.063C634.437 236.277 643.316 218.153 651.866 199.73C654.19 194.725 656.543 189.735 658.917 184.754C683.105 133.94 706.351 79.5375 714.444 23.4784C715.619 16.0909 718.057 7.97254 723.999 2.99987C727.888 1.70379 731.146 1.69604 734.999 2.99987Z" fill="white"/>
<path d="M1248.88 424.688C1250.45 424.631 1250.45 424.631 1252.05 424.574C1255.71 425.103 1256.8 426.08 1259 429C1263.35 439.735 1257.16 455.532 1254 466C1253.73 466.884 1253.47 467.768 1253.19 468.678C1238.62 516.093 1215.95 561.665 1190.67 604.18C1187.95 608.767 1185.29 613.383 1182.62 618C1181.72 619.563 1180.82 621.125 1179.91 622.688C1179.28 623.781 1178.65 624.874 1178 626C1178.85 626.324 1178.85 626.324 1179.72 626.655C1182.34 627.656 1184.95 628.671 1187.56 629.688C1188.91 630.197 1188.91 630.197 1190.28 630.717C1195.81 632.884 1200.43 635.169 1205 639C1205.94 642.312 1205.94 642.312 1206 645C1194.71 654.795 1174.52 656.396 1160 656C1159.75 656.823 1159.5 657.646 1159.24 658.494C1157.81 662.527 1156.03 666.267 1154.14 670.098C1153.76 670.876 1153.38 671.654 1152.99 672.456C1151.74 674.993 1150.5 677.528 1149.25 680.062C1147.94 682.726 1146.64 685.39 1145.34 688.054C1144.46 689.84 1143.59 691.625 1142.71 693.41C1139.05 700.885 1135.43 708.376 1131.81 715.875C1131.26 717.007 1130.72 718.138 1130.15 719.304C1127.38 725.028 1124.64 730.759 1121.93 736.511C1120.51 739.51 1119.09 742.504 1117.66 745.498C1116.98 746.931 1116.31 748.367 1115.64 749.805C1109.91 762.108 1101.23 778.428 1088 784C1084.81 784.312 1084.81 784.312 1082 784C1080 782 1080 782 1079.56 778.375C1079.87 767.702 1084.7 757.319 1089.06 747.75C1089.45 746.887 1089.84 746.024 1090.24 745.135C1094.25 736.336 1098.51 727.662 1102.8 718.995C1109.95 704.528 1116.96 690.01 1123.62 675.312C1123.93 674.632 1124.24 673.951 1124.56 673.25C1130.4 662.025 1130.4 662.025 1133 650C1132.02 649.504 1131.04 649.007 1130.04 648.496C1108.78 637.552 1108.78 637.552 1106 630C1105.88 627.375 1105.88 627.375 1107 625C1115.58 620.193 1125.35 620.744 1134.94 620.438C1136.19 620.394 1137.45 620.351 1138.74 620.307C1141.83 620.201 1144.91 620.099 1148 620C1148.46 619.07 1148.93 618.139 1149.4 617.18C1151.17 613.625 1152.94 610.071 1154.71 606.517C1155.47 604.999 1156.23 603.479 1156.98 601.96C1161.19 593.501 1165.46 585.084 1169.88 576.738C1175.44 566.25 1180.72 555.631 1186 545C1191.74 533.43 1197.53 521.9 1203.58 510.484C1216.11 486.792 1227.46 462.086 1233.99 435.987C1235.28 431.144 1236.56 428.768 1241 426C1243.69 424.657 1245.88 424.757 1248.88 424.688Z" fill="white"/>
<path d="M386.406 236.801C389.803 239.357 390.824 241.818 391.437 245.938C390.782 250.528 388.882 253.423 385.318 256.41C380.405 260.07 375.344 263.36 370.125 266.563C348.044 280.388 322.681 297.476 313 323C312.483 325.981 312.588 327.913 313 331C314.87 333.431 316.281 334.641 319 336C327.994 336.789 334.828 333.48 341.789 327.922C355.668 315.857 366.161 301.643 374.895 285.5C379.594 276.902 385.982 267.509 395 263C398.221 262.629 400.823 262.333 403.722 263.977C407.456 266.967 409.674 269.665 410.336 274.41C410.527 287.374 405.046 295.745 397.82 305.953C388.543 319.128 381.29 332.69 381.937 349.184C382.049 354.223 381.212 357.531 377.937 361.5C374.377 363.318 372.199 363.498 368.289 362.883C364.015 361.235 361.453 357.753 359 354C357.813 350.439 357.649 347.027 357.437 343.313C357.373 342.26 357.373 342.26 357.306 341.186C357.201 339.457 357.1 337.729 357 336C356.34 336 355.68 336 355 336C355 336.66 355 337.32 355 338C353.601 339.41 353.601 339.41 351.625 341.063C348.439 343.758 345.361 346.526 342.312 349.375C332.647 358.062 320.579 367.924 307.125 368.625C303.506 368.425 302.238 368.164 299.187 366.063C298.104 364.547 298.104 364.547 297 363C296.51 362.357 296.02 361.714 295.515 361.051C285.697 347.515 283.872 330.857 286.366 314.615C290.229 296.805 301.626 284.553 314 272C315.01 270.953 316.019 269.905 317.027 268.856C322.99 262.739 329.267 257.252 336 252C336.946 251.237 337.892 250.474 338.867 249.688C351.395 239.851 370.551 227.541 386.406 236.801Z" fill="white"/>
<path d="M801.999 268C807.138 273.396 807.36 277.291 807.265 284.563C806.472 294.826 799.471 306.076 791.89 312.899C789.999 314 789.999 314 787.249 313.688C786.507 313.461 785.764 313.234 784.999 313C783.391 308.641 782.62 304.612 782.124 300C781.254 293.555 780.37 289.769 775.249 285.563C768.954 283.989 764.434 286.071 758.999 289.125C750.286 294.313 750.286 294.313 743.999 302C744.707 302.246 745.415 302.493 746.144 302.746C756.589 307.333 768.481 317.681 774.999 327C777.923 336.037 776.964 348.952 774.144 357.86C771.03 363.683 766.914 367.182 761.187 370.313C760.5 370.69 759.813 371.068 759.106 371.457C740.922 381.073 720.931 386.394 700.999 391C699.885 391.259 698.772 391.518 697.624 391.784C675.955 396.731 654.005 399.974 631.999 403C631.254 403.103 630.508 403.206 629.74 403.312C627.594 403.606 625.447 403.891 623.3 404.172C622.081 404.333 620.862 404.494 619.606 404.659C608.862 405.675 608.862 405.675 605.999 403.438C604.589 400.002 604.482 397.683 604.999 394C610.421 386.714 619.469 384.299 627.89 382.09C628.84 381.836 629.79 381.582 630.768 381.321C641.231 378.585 651.805 376.403 662.4 374.246C690.426 368.544 690.426 368.544 717.999 361C718.827 360.744 719.656 360.488 720.509 360.225C737.062 355.407 737.062 355.407 748.999 344C749.745 340.409 749.761 338.213 747.776 335.055C741.032 326.924 732.062 320.924 723.444 314.957C719.763 312.011 717.267 309.52 716.437 304.813C718.317 292.07 728.162 283.683 737.612 275.828C755.572 262.542 781.68 255.85 801.999 268Z" fill="white"/>
<path d="M1245 677C1246.03 677.4 1246.03 677.4 1247.08 677.808C1251.47 679.889 1253.5 682.612 1255.34 686.933C1257.75 694.52 1254.89 702.25 1251.45 709.062C1244.36 721.619 1244.36 721.619 1240 725C1236.75 725.625 1236.75 725.625 1234 725C1231.6 721.404 1231.54 719.089 1231.12 714.812C1230.43 708.767 1229.33 704.144 1226 699C1222.41 696.606 1220.14 696.187 1216 697C1207.04 700.362 1200.09 705.716 1193 712C1196.14 714.54 1199.33 717.015 1202.55 719.45C1223.28 735.161 1223.28 735.161 1224.39 742.628C1224.39 744.011 1224.39 744.011 1224.4 745.422C1224.4 746.448 1224.41 747.474 1224.41 748.531C1224.39 750.124 1224.39 750.124 1224.37 751.75C1224.39 752.797 1224.4 753.843 1224.41 754.922C1224.38 762.213 1223.78 769 1219.52 775.129C1187.34 802.152 1133.86 807.005 1093.81 812.875C1092.79 813.026 1091.76 813.178 1090.7 813.334C1079.15 815.026 1067.68 816.487 1056 817C1053.3 812.951 1053.24 809.752 1054 805C1059.06 796.747 1072.49 794.657 1081.32 792.529C1082.99 792.143 1082.99 792.143 1084.69 791.75C1085.9 791.462 1087.11 791.174 1088.37 790.877C1098.69 788.447 1109.07 786.269 1119.45 784.078C1161.6 777.626 1161.6 777.626 1197 757C1198.13 753.355 1198.25 751.606 1196.76 748.059C1191.72 739.316 1181.9 733.63 1173.71 728.074C1173 727.588 1172.29 727.102 1171.56 726.601C1170.92 726.172 1170.29 725.742 1169.63 725.299C1167.34 723.472 1166.13 721.736 1165.63 718.836C1165.4 710.246 1168 705.373 1173.65 699.016C1191.86 679.807 1218.69 666.683 1245 677Z" fill="white"/>
<path d="M497.312 218.375C502.913 219.324 506.531 221.01 509.937 225.625C513.029 235.445 509.722 244.236 506.5 253.625C506.065 254.928 505.631 256.231 505.199 257.535C504.146 260.695 503.079 263.849 502 267C502.619 266.533 503.237 266.066 503.875 265.584C505.874 264.094 507.897 262.714 510 261.375C510.66 260.95 511.32 260.524 512 260.086C517.257 257.231 523.069 257.235 528.754 258.719C536.109 261.201 541.493 263.797 545.25 270.875C556.377 295.531 548.741 327.31 539.711 351.445C537.408 356.898 534.747 362.284 530 366C525.732 367.448 523.917 367.414 519.812 365.562C515.297 361.448 512.584 356.13 512 350C511.937 349.363 511.874 348.726 511.809 348.07C511.359 339.454 513.88 331.266 516 323C516.784 319.941 517.553 316.878 518.312 313.812C518.496 313.118 518.679 312.424 518.868 311.709C519.914 307.479 520.129 304.223 519 300C516.655 297.186 515.014 297.002 511.375 296.438C503.805 296.775 497.773 301.853 492.812 307.188C483.581 318.344 477.109 331.403 472.148 344.953C471.849 345.765 471.55 346.577 471.242 347.414C470.679 348.973 470.133 350.539 469.609 352.112C467.801 357.156 465.957 359.469 461 362C457.143 362.643 455.428 362.219 451.937 360.438C446.658 356.056 442.655 350.619 441.676 343.715C441.219 336.983 441.219 336.983 443.154 334.549C443.646 334.018 444.138 333.488 444.645 332.941C448.992 328.177 451.463 322.609 454.187 316.812C454.469 316.22 454.75 315.627 455.039 315.016C463.277 297.603 469.959 279.63 476.547 261.547C477.149 259.898 477.149 259.898 477.763 258.215C479.79 252.657 481.808 247.097 483.807 241.529C484.558 239.459 485.308 237.39 486.059 235.32C486.397 234.368 486.735 233.416 487.083 232.435C491.834 219.409 491.834 219.409 497.312 218.375Z" fill="white"/>
<path d="M983 703C985.512 705.513 985.931 706.522 986.437 710.062C985.833 715.503 983.556 718.913 980 723C975.932 725.918 972.997 726.16 968.054 725.992C949.09 726.064 930.371 742.065 917 754C915.843 754.974 915.843 754.974 914.664 755.969C908.264 761.363 903.134 767.54 898 774.125C893.498 779.796 888.201 786.172 880.668 787.371C875.232 787.517 871.629 787.053 867.41 783.473C864.596 780.534 863.016 778.044 862.982 773.88C863.578 767.057 865.43 761.222 867.937 754.875C868.334 753.848 868.731 752.821 869.14 751.763C870.409 748.502 871.702 745.25 873 742C873.431 740.91 873.862 739.82 874.306 738.697C875.585 735.479 876.882 732.269 878.187 729.062C878.578 728.087 878.97 727.112 879.373 726.107C882.58 718.373 886.498 709.391 894 705C897.5 703.937 897.5 703.937 901 704C903.868 705.657 904.582 706.148 906 709C906.999 713.306 907.568 717.604 908 722C908.452 721.673 908.904 721.346 909.37 721.009C928.757 707.039 958.732 686.821 983 703Z" fill="white"/>
<path d="M763.001 938C763.991 938.66 764.981 939.32 766.001 940C766.331 938.68 766.661 937.36 767.001 936C772.611 936 778.221 936 784.001 936C784.091 944.546 784.165 953.091 784.208 961.637C784.229 965.607 784.257 969.576 784.302 973.545C784.346 977.383 784.37 981.221 784.38 985.06C784.387 986.516 784.402 987.973 784.424 989.429C784.574 999.889 784.058 1009.76 776.813 1017.94C767.479 1026.31 755.918 1026.56 744.023 1026.13C736.131 1025.62 728.814 1022.35 723.001 1017C717.001 1008.95 717.001 1008.95 717.001 1005C720.25 1004.91 723.5 1004.86 726.751 1004.81C727.671 1004.79 728.591 1004.76 729.54 1004.74C730.429 1004.73 731.319 1004.72 732.235 1004.71C733.052 1004.69 733.869 1004.68 734.711 1004.66C737.528 1005.08 738.841 1006.19 741.001 1008C747.179 1010.15 754.648 1010.01 760.563 1007.25C763.576 1005.67 764.763 1004.17 766.001 1001C766.168 998.333 766.168 998.333 766.001 996C765.47 996.277 764.938 996.554 764.391 996.84C763.332 997.383 763.332 997.383 762.251 997.938C761.555 998.297 760.858 998.657 760.141 999.027C753.397 1002.09 745.346 1001.95 738.313 999.875C729.759 996.575 724.353 990.969 720.001 983C715.613 972.823 716.07 962.586 719.544 952.191C723.342 943.872 729.576 938.284 738.001 935C746.808 932.37 754.956 933.887 763.001 938ZM737.626 956.375C733.918 962.365 733.495 967.236 735.001 974C737.14 978.954 741.178 982.589 746.001 985C751.256 985.524 755.646 985.665 760.438 983.313C764.627 979.532 767.622 976.348 768.274 970.582C768.527 963.696 767.624 959.227 763.001 954C755.136 947.034 744.458 949.543 737.626 956.375Z" fill="white"/>
<path d="M587 913C602.84 913 618.68 913 635 913C635 918.61 635 924.22 635 930C624.77 930 614.54 930 604 930C604 934.95 604 939.9 604 945C614.23 945 624.46 945 635 945C635 950.61 635 956.22 635 962C624.77 962 614.54 962 604 962C604 969.26 604 976.52 604 984C614.23 984 624.46 984 635 984C635 989.61 635 995.22 635 1001C619.16 1001 603.32 1001 587 1001C587 971.96 587 942.92 587 913Z" fill="white"/>
<path d="M1439.96 941.27C1447.19 947.408 1451.04 955.633 1452 965C1452 967.97 1452 970.94 1452 974C1426.75 974.495 1426.75 974.495 1401 975C1404.05 981.11 1404.05 981.11 1409 985C1414.3 986.766 1420.93 987.196 1426.2 985.141C1427.84 984.157 1429.42 983.083 1431 982C1432.8 981.188 1432.8 981.188 1435 981C1438.01 982.215 1438.01 982.215 1441.25 983.938C1442.33 984.504 1443.4 985.069 1444.51 985.652C1445.33 986.097 1446.15 986.542 1447 987C1446.27 991.61 1443.78 993.435 1440.32 996.32C1432.51 1001.98 1423.57 1003.88 1414 1003C1404.01 1001.39 1396.01 998.133 1389.62 990.063C1383.75 981.515 1381.81 972.396 1383.46 962.137C1385.68 951.861 1390 944.62 1398.59 938.442C1411.62 930.646 1427.91 932.645 1439.96 941.27ZM1405 953C1403.68 955.31 1402.36 957.62 1401 960C1411.89 960 1422.78 960 1434 960C1431.83 954.574 1430.04 952.774 1425.13 949.91C1418.71 947.168 1410.27 948.407 1405 953Z" fill="white"/>
<path d="M911 911C916.61 911 922.22 911 928 911C928.495 925.355 928.495 925.355 929 940C931.97 938.35 934.94 936.7 938 935C945.475 933.131 952.107 933.379 959 937C963.901 940.027 966.153 943.556 968 949C968.788 952.353 969.123 955.441 969.114 958.882C969.113 959.823 969.113 960.763 969.113 961.732C969.108 962.735 969.103 963.737 969.098 964.77C969.096 965.806 969.095 966.842 969.093 967.909C969.088 971.21 969.075 974.511 969.062 977.812C969.057 980.054 969.053 982.296 969.049 984.537C969.038 990.025 969.021 995.512 969 1001C963.39 1001 957.78 1001 952 1001C951.951 998.35 951.902 995.699 951.852 992.969C951.797 990.38 951.74 987.792 951.683 985.204C951.645 983.416 951.61 981.627 951.578 979.839C951.532 977.257 951.474 974.675 951.414 972.094C951.403 971.304 951.391 970.514 951.379 969.7C951.221 963.665 950.772 957.625 947.312 952.5C943.983 950.34 941.901 950.462 938 951C933.469 953.179 931.473 955.307 929.605 959.957C928.506 963.669 928.518 967.367 928.488 971.215C928.47 972.071 928.452 972.926 928.434 973.808C928.38 976.518 928.346 979.227 928.312 981.938C928.279 983.785 928.245 985.632 928.209 987.479C928.122 991.986 928.062 996.492 928 1001C922.39 1001 916.78 1001 911 1001C911 971.3 911 941.6 911 911Z" fill="white"/>
<path d="M1100.73 938.066C1106.16 942.12 1107.92 947.556 1109 954C1109.08 955.626 1109.12 957.254 1109.11 958.882C1109.11 959.822 1109.11 960.763 1109.11 961.732C1109.11 962.734 1109.1 963.737 1109.1 964.769C1109.1 965.805 1109.09 966.842 1109.09 967.909C1109.09 971.21 1109.08 974.511 1109.06 977.812C1109.06 980.054 1109.05 982.295 1109.05 984.537C1109.04 990.025 1109.02 995.512 1109 1001C1103.39 1001 1097.78 1001 1092 1001C1091.95 998.35 1091.9 995.699 1091.85 992.969C1091.8 990.38 1091.74 987.792 1091.68 985.204C1091.64 983.416 1091.61 981.627 1091.58 979.839C1091.53 977.257 1091.47 974.675 1091.41 972.094C1091.4 971.304 1091.39 970.514 1091.38 969.7C1091.22 963.665 1090.77 957.625 1087.31 952.5C1083.98 950.34 1081.9 950.462 1078 951C1073.76 952.956 1072.31 954.32 1070.36 958.588C1068.77 963.111 1068.53 967.333 1068.49 972.094C1068.47 972.926 1068.45 973.758 1068.43 974.615C1068.38 977.243 1068.35 979.871 1068.31 982.5C1068.28 984.294 1068.24 986.088 1068.21 987.883C1068.12 992.255 1068.06 996.627 1068 1001C1062.39 1001 1056.78 1001 1051 1001C1051 979.55 1051 958.1 1051 936C1056.61 936 1062.22 936 1068 936C1068.33 937.32 1068.66 938.64 1069 940C1069.6 939.65 1070.21 939.301 1070.83 938.941C1071.63 938.486 1072.43 938.031 1073.25 937.562C1074.43 936.884 1074.43 936.884 1075.64 936.191C1083.85 932.048 1093.08 933.342 1100.73 938.066Z" fill="white"/>
<path d="M698.75 938.687C704.378 944.472 705.455 950.045 705.453 957.835C705.433 958.931 705.412 960.027 705.391 961.156C705.385 962.299 705.379 963.442 705.373 964.619C705.351 968.247 705.301 971.873 705.25 975.5C705.23 977.969 705.212 980.437 705.195 982.906C705.151 988.938 705.082 994.969 705 1001C699.72 1001 694.44 1001 689 1001C688.939 998.745 688.879 996.491 688.816 994.168C688.754 991.947 688.691 989.726 688.628 987.505C688.585 985.98 688.543 984.454 688.503 982.929C689.109 967.39 689.109 967.39 685 953C681.349 950.517 678.346 950.805 674.121 951.394C670.808 952.34 669.664 954.071 668 957C665.646 961.63 665.657 965.937 665.586 971.019C665.567 971.878 665.547 972.737 665.527 973.621C665.468 976.352 665.421 979.082 665.375 981.812C665.337 983.669 665.298 985.525 665.258 987.381C665.16 991.92 665.081 996.46 665 1001C659.39 1001 653.78 1001 648 1001C648 979.55 648 958.1 648 936C653.61 936 659.22 936 665 936C665.33 937.32 665.66 938.64 666 940C666.846 939.381 667.691 938.762 668.562 938.125C678.324 931.694 689.174 932.811 698.75 938.687Z" fill="white"/>
<path d="M1057 699C1060.93 700.812 1064.03 702.974 1067 706.125C1069.73 713.987 1068.19 721.216 1064.79 728.598C1057.12 743.182 1047.65 756.674 1038 770C1037.51 770.686 1037.01 771.373 1036.5 772.08C1035.18 773.897 1033.85 775.702 1032.5 777.5C1031.4 778.97 1031.4 778.97 1030.28 780.469C1026.11 785.097 1021.83 787.686 1015.63 788.375C1012 788 1012 788 1009.13 785.625C1006.01 781.777 1005.53 779.349 1005.6 774.488C1006.35 769.835 1009.21 766.67 1012 763C1017.41 755.863 1022.2 748.638 1026.44 740.75C1026.99 739.727 1027.54 738.703 1028.12 737.649C1033.29 727.851 1037.3 717.728 1041.13 707.343C1044.75 697.621 1046.67 695.939 1057 699Z" fill="white"/>
<path d="M1278 936C1283.61 936 1289.22 936 1295 936C1295.01 937.175 1295.03 938.35 1295.04 939.561C1295.1 943.943 1295.18 948.324 1295.26 952.705C1295.3 954.597 1295.32 956.49 1295.35 958.382C1295.38 961.111 1295.43 963.838 1295.49 966.566C1295.49 967.405 1295.5 968.244 1295.51 969.108C1295.64 974.446 1296.44 978.279 1299 983C1302.22 985.289 1304.12 986 1308.06 986C1311.79 984.729 1313.53 983.04 1316 980C1316.89 977.27 1317.14 974.734 1317.21 971.874C1317.23 971.073 1317.25 970.273 1317.27 969.448C1317.28 968.594 1317.3 967.74 1317.32 966.859C1317.34 965.977 1317.36 965.095 1317.38 964.186C1317.44 961.374 1317.5 958.562 1317.56 955.75C1317.61 953.841 1317.65 951.932 1317.69 950.023C1317.8 945.349 1317.9 940.675 1318 936C1323.61 936 1329.22 936 1335 936C1335.07 941.619 1335.13 947.238 1335.16 952.858C1335.18 954.765 1335.2 956.671 1335.23 958.578C1335.6 986.193 1335.6 986.193 1327.84 995.312C1320.77 1001.79 1312.37 1003.35 1303 1003C1294.66 1002.03 1288.41 999.562 1283 993C1278.17 985.573 1277.85 978.533 1277.9 969.887C1277.9 968.917 1277.91 967.948 1277.91 966.949C1277.91 963.862 1277.92 960.775 1277.94 957.688C1277.94 955.59 1277.95 953.493 1277.95 951.396C1277.96 946.264 1277.98 941.132 1278 936Z" fill="white"/>
<path d="M1158.93 939.273C1161.6 941.379 1162.91 942.731 1164 946C1160.7 949.3 1157.4 952.6 1154 956C1150 954 1150 954 1147.62 952.375C1144.53 950.755 1142.44 950.76 1139 951C1138.67 952.32 1138.34 953.64 1138 955C1138.78 955.415 1138.78 955.415 1139.57 955.839C1141.95 957.112 1144.32 958.4 1146.69 959.687C1147.5 960.122 1148.32 960.557 1149.16 961.006C1156.15 964.825 1161.85 969.135 1164.69 976.875C1165.78 984.312 1164.28 989.365 1160.31 995.687C1154.75 1001.25 1148.69 1002.65 1140.96 1003.03C1131.68 1002.94 1125.85 999.747 1119.27 993.308C1118.85 992.877 1118.43 992.445 1118 992C1119.44 988.761 1121.26 986.38 1123.62 983.75C1124.26 983.043 1124.89 982.337 1125.54 981.609C1126.02 981.078 1126.5 980.547 1127 980C1129.89 980.581 1130.94 980.943 1133.19 983C1136.94 985.669 1140.44 986.045 1145 986C1145.99 985.505 1145.99 985.505 1147 985C1147.37 982.624 1147.37 982.624 1147 980C1145.16 978.286 1145.16 978.286 1142.62 977.062C1141.71 976.554 1140.8 976.047 1139.87 975.523C1138.02 974.543 1136.17 973.568 1134.32 972.601C1128.15 969.209 1123.62 965.718 1121 959C1120.09 953.546 1120.05 948.124 1122.5 943.062C1131.94 931.495 1146.92 931.333 1158.93 939.273Z" fill="white"/>
<path d="M889.999 937C892.861 939.15 895.463 941.477 897.999 944C896.522 947.452 894.561 949.65 891.874 952.25C891.15 952.956 890.426 953.663 889.679 954.391C889.125 954.922 888.571 955.453 887.999 956C887.503 955.639 887.007 955.278 886.496 954.906C881.705 951.634 878.797 950.396 872.999 951C872.999 952.32 872.999 953.64 872.999 955C874.073 955.58 875.147 956.16 876.253 956.758C893.767 966.327 893.767 966.327 897.937 973.188C899.663 979.38 900.449 985.983 897.374 991.875C892.17 998.723 887.333 1001.28 878.999 1003C870.633 1003.9 862.581 1001.14 855.999 996C855.36 995.505 854.721 995.01 854.062 994.5C852.999 993 852.999 993 853.226 991.172C854.169 988.524 855.476 986.873 857.312 984.75C857.906 984.044 858.5 983.337 859.113 982.609C860.999 981 860.999 981 864.999 981C866.894 982.094 866.894 982.094 868.812 983.5C872.656 986.037 875.331 986.654 879.999 986C880.659 985.34 881.319 984.68 881.999 984C881.796 981.494 881.434 980.37 879.503 978.727C878.863 978.363 878.222 978 877.562 977.625C876.843 977.201 876.123 976.777 875.382 976.34C873.758 975.426 872.127 974.523 870.492 973.629C863.866 969.891 857.499 965.499 854.999 958C854.466 952.035 854.447 947.043 857.999 942C866.641 932.922 878.789 931.184 889.999 937Z" fill="white"/>
<path d="M1243 912C1248.94 912 1254.88 912 1261 912C1261 919.92 1261 927.84 1261 936C1263.97 936 1266.94 936 1270 936C1270 940.95 1270 945.9 1270 951C1267.03 951 1264.06 951 1261 951C1261 967.5 1261 984 1261 1001C1255.06 1001 1249.12 1001 1243 1001C1243 984.5 1243 968 1243 951C1240.36 951 1237.72 951 1235 951C1235 946.05 1235 941.1 1235 936C1237.64 936 1240.28 936 1243 936C1243 928.08 1243 920.16 1243 912Z" fill="white"/>
<path d="M1352 912C1357.61 912 1363.22 912 1369 912C1369 919.92 1369 927.84 1369 936C1372.3 936 1375.6 936 1379 936C1379 940.95 1379 945.9 1379 951C1375.7 951 1372.4 951 1369 951C1369 967.5 1369 984 1369 1001C1363.39 1001 1357.78 1001 1352 1001C1352 984.5 1352 968 1352 951C1349.36 951 1346.72 951 1344 951C1344 946.05 1344 941.1 1344 936C1346.64 936 1349.28 936 1352 936C1352 928.08 1352 920.16 1352 912Z" fill="white"/>
<path d="M1178 912C1183.61 912 1189.22 912 1195 912C1195 919.92 1195 927.84 1195 936C1198.3 936 1201.6 936 1205 936C1205 940.95 1205 945.9 1205 951C1201.7 951 1198.4 951 1195 951C1195 967.5 1195 984 1195 1001C1189.39 1001 1183.78 1001 1178 1001C1178 984.5 1178 968 1178 951C1175.36 951 1172.72 951 1170 951C1170 946.05 1170 941.1 1170 936C1172.64 936 1175.28 936 1178 936C1178 928.08 1178 920.16 1178 912Z" fill="white"/>
<path d="M798 911C803.61 911 809.22 911 815 911C815 940.7 815 970.4 815 1001C809.39 1001 803.78 1001 798 1001C798 971.3 798 941.6 798 911Z" fill="white"/>
<path d="M1018 913C1023.61 913 1029.22 913 1035 913C1035 942.04 1035 971.08 1035 1001C1029.39 1001 1023.78 1001 1018 1001C1018 971.96 1018 942.92 1018 913Z" fill="white"/>
<path d="M1211 936C1216.61 936 1222.22 936 1228 936C1228 957.45 1228 978.9 1228 1001C1222.39 1001 1216.78 1001 1211 1001C1211 979.55 1211 958.1 1211 936Z" fill="white"/>
<path d="M827 936C832.61 936 838.22 936 844 936C844 957.45 844 978.9 844 1001C838.39 1001 832.78 1001 827 1001C827 979.55 827 958.1 827 936Z" fill="white"/>
<path d="M1093.98 601.008C1097.57 602.771 1099.26 605.528 1101 609C1101.2 610.953 1101.2 610.953 1101.25 613.25C1101.28 613.998 1101.3 614.745 1101.33 615.516C1100.59 621.081 1097.34 625.117 1093.69 629.188C1092.58 630.446 1092.58 630.446 1091.45 631.731C1086.43 636.386 1081.49 637.829 1074.77 637.692C1069.6 636.401 1066.79 632.318 1064 628C1062.36 623.065 1062.38 618.819 1064.5 614.063C1071.1 601.985 1080.73 596.268 1093.98 601.008Z" fill="white"/>
<path d="M841.001 910C844.199 912.666 845.637 914.17 846.442 918.223C846.654 922.313 846.33 924.473 844.126 928C840.593 931.325 837.954 931.331 833.262 931.293C829.946 930.863 828.251 929.391 826.001 927C824.257 923.513 824.42 919.804 825.001 916C828.554 909.361 833.962 907.823 841.001 910Z" fill="white"/>
<path d="M1224 910C1226.71 911.824 1228.54 913.075 1230 916C1230.55 920.632 1230.64 923.982 1228.12 928C1224.59 931.326 1221.95 931.331 1217.26 931.293C1213.95 930.864 1212.25 929.391 1210 927C1208.14 923.283 1208.42 919.047 1209 915C1213.4 909.179 1217.04 908.441 1224 910Z" fill="white"/>
<path d="M505.062 613.938C506.517 613.968 506.517 613.968 508 614C508 614.66 508 615.32 508 616C507.01 616.33 506.02 616.66 505 617C504.67 617.99 504.34 618.98 504 620C503.34 620 502.68 620 502 620C501.618 618.344 501.286 616.675 501 615C502 614 502 614 505.062 613.938Z" fill="white"/>
<path d="M733 518C733 518.33 733 518.66 733 519C731.928 519.268 730.855 519.536 729.75 519.813C726.435 520.862 724.561 521.746 722 524C721.34 523.67 720.68 523.34 720 523C724.415 518.693 726.577 517.358 733 518Z" fill="white"/>
<path d="M123 328C123.33 328.99 123.66 329.98 124 331C118.824 334.223 118.824 334.223 117 335C116.01 334.67 115.02 334.34 114 334C116.97 332.02 119.94 330.04 123 328Z" fill="white"/>
<path d="M163 344C163.33 344.99 163.66 345.98 164 347C162.02 347.99 162.02 347.99 160 349C160 349.99 160 350.98 160 352C159.01 351.67 158.02 351.34 157 351C158.98 348.69 160.96 346.38 163 344Z" fill="white"/>
<path d="M484 241C486 244 486 244 485.625 246.188C485.419 246.786 485.213 247.384 485 248C484.34 248 483.68 248 483 248C483 248.99 483 249.98 483 251C482.34 250.67 481.68 250.34 481 250C481.99 247.03 482.98 244.06 484 241Z" fill="white"/>
</g>
<defs>
<clipPath id="clip0_1534_648">
<rect width="1452" height="1026" fill="white"/>
</clipPath>
</defs>
</svg>
